<?xml version="1.0" encoding="UTF-8" standalone="no"?>
<!-- Created with Inkscape (http://www.inkscape.org/) -->

<svg
   xmlns:dc="http://purl.org/dc/elements/1.1/"
   xmlns:cc="http://creativecommons.org/ns#"
   xmlns:rdf="http://www.w3.org/1999/02/22-rdf-syntax-ns#"
   xmlns:svg="http://www.w3.org/2000/svg"
   xmlns="http://www.w3.org/2000/svg"
   xmlns:sodipodi="http://sodipodi.sourceforge.net/DTD/sodipodi-0.dtd"
   xmlns:inkscape="http://www.inkscape.org/namespaces/inkscape"
   width="1024"
   height="1024"
   id="svg3090"
   version="1.1"
   inkscape:version="0.92.2 (5c3e80d, 2017-08-06)"
   sodipodi:docname="About.svg"
   inkscape:export-filename="D:\RobertLohr\Programmieren\Cpp\WorkTracker\icon\Icon256.png"
   inkscape:export-xdpi="22.524746"
   inkscape:export-ydpi="22.524746">
  <defs
     id="defs3092" />
  <sodipodi:namedview
     id="base"
     pagecolor="#ffffff"
     bordercolor="#666666"
     borderopacity="1.0"
     inkscape:pageopacity="0.0"
     inkscape:pageshadow="2"
     inkscape:zoom="0.49497475"
     inkscape:cx="546.45629"
     inkscape:cy="479.51049"
     inkscape:document-units="px"
     inkscape:current-layer="layer2"
     showgrid="false"
     inkscape:window-width="1920"
     inkscape:window-height="1017"
     inkscape:window-x="1912"
     inkscape:window-y="-8"
     inkscape:window-maximized="1" />
  <metadata
     id="metadata3095">
    <rdf:RDF>
      <cc:Work
         rdf:about="">
        <dc:format>image/svg+xml</dc:format>
        <dc:type
           rdf:resource="http://purl.org/dc/dcmitype/StillImage" />
        <dc:title />
      </cc:Work>
    </rdf:RDF>
  </metadata>
  <g
     inkscape:groupmode="layer"
     id="layer3"
     inkscape:label="Background"
     style="display:none">
    <rect
       style="fill:#63b4fb;fill-opacity:1;stroke:none"
       id="rect3100"
       width="1024"
       height="1024"
       x="1.4285715"
       y="-0.28571483" />
  </g>
  <g
     style="display:none"
     transform="translate(0,-28.362183)"
     id="g4059"
     inkscape:groupmode="layer"
     inkscape:label="Pad Kopie">
    <path
       inkscape:connector-curvature="0"
       id="path4061"
       d="m 644,29.487183 c -61.04053,0 -111.7878,26.168158 -122.28125,60.65625 l -82.71875,0 0,112.218747 410,0 0,-112.218747 -82.71875,0 C 755.7878,55.655341 705.04053,29.487183 644,29.487183 z m 0,40.78125 c 30.77015,0 55.71875,14.83344 55.71875,33.124997 0,18.29156 -24.9486,33.09375 -55.71875,33.09375 -30.77015,0 -55.71875,-14.80219 -55.71875,-33.09375 0,-18.291557 24.9486,-33.124997 55.71875,-33.124997 z m -380,67.093747 0,915.00002 760,0 0,-915.00002 -115,0 0,89.46875 0,25.53125 -530,0 0,-25.53125 0,-89.46875 -115,0 z"
       style="fill:#2e3436;fill-opacity:1;stroke:none" />
    <rect
       y="377.36218"
       x="379"
       height="560"
       width="530"
       id="rect4063"
       style="fill:#eeeeec;fill-opacity:1;stroke:none" />
    <path
       transform="matrix(1.4736842,0,0,1.0769231,-57.8421,-18.282551)"
       d="m 391.42856,475.42856 a 27.142857,37.142857 0 0 1 -27.14285,37.14285 27.142857,37.142857 0 0 1 -27.14286,-37.14285 27.142857,37.142857 0 0 1 27.14286,-37.14286 27.142857,37.142857 0 0 1 27.14285,37.14286 z"
       sodipodi:ry="37.142857"
       sodipodi:rx="27.142857"
       sodipodi:cy="475.42856"
       sodipodi:cx="364.28571"
       id="path4067"
       style="fill:#2e3436;fill-opacity:1;stroke:none"
       sodipodi:type="arc" />
    <rect
       y="463.71744"
       x="570.58899"
       height="60"
       width="277.79196"
       id="rect4069"
       style="fill:#2e3436;fill-opacity:1;stroke:none" />
    <g
       transform="translate(114,192.28574)"
       id="g4071">
      <path
         transform="matrix(1.4736842,0,0,1.0769231,-171.8421,-46.923538)"
         d="m 391.42856,475.42856 a 27.142857,37.142857 0 0 1 -27.14285,37.14285 27.142857,37.142857 0 0 1 -27.14286,-37.14285 27.142857,37.142857 0 0 1 27.14286,-37.14286 27.142857,37.142857 0 0 1 27.14285,37.14286 z"
         sodipodi:ry="37.142857"
         sodipodi:rx="27.142857"
         sodipodi:cy="475.42856"
         sodipodi:cx="364.28571"
         id="path4073"
         style="fill:#2e3436;fill-opacity:1;stroke:none"
         sodipodi:type="arc" />
      <rect
         y="435.07645"
         x="456.58896"
         height="60"
         width="277.79196"
         id="rect4075"
         style="fill:#2e3436;fill-opacity:1;stroke:none" />
    </g>
    <g
       id="g4077"
       transform="translate(114,355.93046)">
      <path
         sodipodi:type="arc"
         style="fill:#2e3436;fill-opacity:1;stroke:none"
         id="path4079"
         sodipodi:cx="364.28571"
         sodipodi:cy="475.42856"
         sodipodi:rx="27.142857"
         sodipodi:ry="37.142857"
         d="m 391.42856,475.42856 a 27.142857,37.142857 0 0 1 -27.14285,37.14285 27.142857,37.142857 0 0 1 -27.14286,-37.14285 27.142857,37.142857 0 0 1 27.14286,-37.14286 27.142857,37.142857 0 0 1 27.14285,37.14286 z"
         transform="matrix(1.4736842,0,0,1.0769231,-171.8421,-46.923538)" />
      <rect
         style="fill:#2e3436;fill-opacity:1;stroke:none"
         id="rect4081"
         width="277.79196"
         height="60"
         x="456.58896"
         y="435.07645" />
    </g>
  </g>
  <g
     inkscape:label="Pad"
     inkscape:groupmode="layer"
     id="g4202"
     transform="translate(0,-28.362183)"
     style="display:inline" />
  <g
     inkscape:groupmode="layer"
     id="layer4"
     inkscape:label="Flag"
     style="display:inline">
    <rect
       style="display:inline;fill:#000000;fill-opacity:0;stroke-width:2.49099207"
       y="166.28572"
       x="-1674.8572"
       height="1024"
       width="1024"
       id="rect4479-0"
       inkscape:export-xdpi="3"
       inkscape:export-ydpi="3" />
  </g>
  <g
     inkscape:groupmode="layer"
     id="layer2"
     inkscape:label="Clock"
     style="display:inline">
    <path
       style="display:inline;fill:#0066cc;fill-opacity:1;stroke:none;stroke-width:2.42582536"
       d="M 512.54603,1.213258e-6 C 370.57077,1.213258e-6 256.27307,17.14652 256.27307,38.434771 V 109.971 c 0,16.63144 69.74083,30.74373 167.96072,36.11593 v 68.52174 C 183.28586,247.7528 2.9266795e-7,415.02296 2.9266795e-7,616.34782 2.9266795e-7,841.50129 229.19709,1024 511.96357,1024 794.73012,1024 1024,841.50129 1024,616.34782 1024,415.02296 840.71416,247.75281 599.76622,214.60868 v -68.46376 c 98.78784,-5.3277 169.05282,-19.48158 169.05282,-36.17391 V 38.434771 C 768.81904,17.14652 654.52126,1.213258e-6 512.54603,1.213258e-6 Z M 511.96357,342.60866 c 189.85755,0 343.78449,122.56464 343.78449,273.73916 0,151.17446 -153.92694,273.68116 -343.78448,273.68116 -189.85749,0 -343.71157,-122.5067 -343.71157,-273.68116 0,-151.17452 153.85408,-273.73915 343.71156,-273.73916 z"
       id="path4016-0-3"
       inkscape:connector-curvature="0"
       inkscape:export-xdpi="3"
       inkscape:export-ydpi="3" />
    <text
       xml:space="preserve"
       style="font-style:normal;font-variant:normal;font-weight:bold;font-stretch:normal;font-size:13.11220074px;line-height:0%;font-family:Cambria;-inkscape-font-specification:'Cambria Bold';letter-spacing:0px;word-spacing:0px;fill:#000000;fill-opacity:1;stroke:none;stroke-width:1.09268332"
       x="331.13409"
       y="879.5235"
       id="text4326"
       transform="scale(1.0089798,0.99110012)"><tspan
         sodipodi:role="line"
         id="tspan4328"
         x="331.13409"
         y="879.5235"
         style="font-style:normal;font-variant:normal;font-weight:bold;font-stretch:normal;font-size:764.19293213px;line-height:1.25;font-family:Cambria;-inkscape-font-specification:'Cambria Bold';fill:#000000;stroke-width:1.09268332">?</tspan></text>
  </g>
</svg>
