<?xml version="1.0" encoding="UTF-8" standalone="no"?>
<!-- Created with Inkscape (http://www.inkscape.org/) -->

<svg
   xmlns:dc="http://purl.org/dc/elements/1.1/"
   xmlns:cc="http://creativecommons.org/ns#"
   xmlns:rdf="http://www.w3.org/1999/02/22-rdf-syntax-ns#"
   xmlns:svg="http://www.w3.org/2000/svg"
   xmlns="http://www.w3.org/2000/svg"
   xmlns:sodipodi="http://sodipodi.sourceforge.net/DTD/sodipodi-0.dtd"
   xmlns:inkscape="http://www.inkscape.org/namespaces/inkscape"
   width="1024"
   height="1024"
   id="svg3090"
   version="1.1"
   inkscape:version="0.92.2 (5c3e80d, 2017-08-06)"
   sodipodi:docname="About.svg"
   inkscape:export-filename="D:\RobertLohr\Programmieren\Cpp\WorkTracker\icon\Icon256.png"
   inkscape:export-xdpi="22.524746"
   inkscape:export-ydpi="22.524746">
  <defs
     id="defs3092">
    <filter
       style="color-interpolation-filters:sRGB;"
       inkscape:label="Greyscale"
       id="filter245">
      <feColorMatrix
         values="0.41 1.12 0.57 -7.49401e-016 0 0.41 1.12 0.57 -7.49401e-016 0 0.41 1.12 0.57 -7.49401e-016 0 0 0 0 1 0 "
         id="feColorMatrix243" />
    </filter>
  </defs>
  <sodipodi:namedview
     id="base"
     pagecolor="#ffffff"
     bordercolor="#666666"
     borderopacity="1.0"
     inkscape:pageopacity="0.0"
     inkscape:pageshadow="2"
     inkscape:zoom="0.1767767"
     inkscape:cx="1509.8676"
     inkscape:cy="451.73629"
     inkscape:document-units="px"
     inkscape:current-layer="layer2"
     showgrid="false"
     inkscape:window-width="1920"
     inkscape:window-height="1017"
     inkscape:window-x="1912"
     inkscape:window-y="-8"
     inkscape:window-maximized="1" />
  <metadata
     id="metadata3095">
    <rdf:RDF>
      <cc:Work
         rdf:about="">
        <dc:format>image/svg+xml</dc:format>
        <dc:type
           rdf:resource="http://purl.org/dc/dcmitype/StillImage" />
        <dc:title />
      </cc:Work>
    </rdf:RDF>
  </metadata>
  <g
     inkscape:groupmode="layer"
     id="layer3"
     inkscape:label="Background"
     style="display:none">
    <rect
       style="fill:#63b4fb;fill-opacity:1;stroke:none"
       id="rect3100"
       width="1024"
       height="1024"
       x="1.4285715"
       y="-0.28571483" />
  </g>
  <g
     style="display:none"
     transform="translate(0,-28.362183)"
     id="g4059"
     inkscape:groupmode="layer"
     inkscape:label="Pad Kopie">
    <path
       inkscape:connector-curvature="0"
       id="path4061"
       d="m 644,29.487183 c -61.04053,0 -111.7878,26.168158 -122.28125,60.65625 l -82.71875,0 0,112.218747 410,0 0,-112.218747 -82.71875,0 C 755.7878,55.655341 705.04053,29.487183 644,29.487183 z m 0,40.78125 c 30.77015,0 55.71875,14.83344 55.71875,33.124997 0,18.29156 -24.9486,33.09375 -55.71875,33.09375 -30.77015,0 -55.71875,-14.80219 -55.71875,-33.09375 0,-18.291557 24.9486,-33.124997 55.71875,-33.124997 z m -380,67.093747 0,915.00002 760,0 0,-915.00002 -115,0 0,89.46875 0,25.53125 -530,0 0,-25.53125 0,-89.46875 -115,0 z"
       style="fill:#2e3436;fill-opacity:1;stroke:none" />
    <rect
       y="377.36218"
       x="379"
       height="560"
       width="530"
       id="rect4063"
       style="fill:#eeeeec;fill-opacity:1;stroke:none" />
    <path
       transform="matrix(1.4736842,0,0,1.0769231,-57.8421,-18.282551)"
       d="m 391.42856,475.42856 a 27.142857,37.142857 0 0 1 -27.14285,37.14285 27.142857,37.142857 0 0 1 -27.14286,-37.14285 27.142857,37.142857 0 0 1 27.14286,-37.14286 27.142857,37.142857 0 0 1 27.14285,37.14286 z"
       sodipodi:ry="37.142857"
       sodipodi:rx="27.142857"
       sodipodi:cy="475.42856"
       sodipodi:cx="364.28571"
       id="path4067"
       style="fill:#2e3436;fill-opacity:1;stroke:none"
       sodipodi:type="arc" />
    <rect
       y="463.71744"
       x="570.58899"
       height="60"
       width="277.79196"
       id="rect4069"
       style="fill:#2e3436;fill-opacity:1;stroke:none" />
    <g
       transform="translate(114,192.28574)"
       id="g4071">
      <path
         transform="matrix(1.4736842,0,0,1.0769231,-171.8421,-46.923538)"
         d="m 391.42856,475.42856 a 27.142857,37.142857 0 0 1 -27.14285,37.14285 27.142857,37.142857 0 0 1 -27.14286,-37.14285 27.142857,37.142857 0 0 1 27.14286,-37.14286 27.142857,37.142857 0 0 1 27.14285,37.14286 z"
         sodipodi:ry="37.142857"
         sodipodi:rx="27.142857"
         sodipodi:cy="475.42856"
         sodipodi:cx="364.28571"
         id="path4073"
         style="fill:#2e3436;fill-opacity:1;stroke:none"
         sodipodi:type="arc" />
      <rect
         y="435.07645"
         x="456.58896"
         height="60"
         width="277.79196"
         id="rect4075"
         style="fill:#2e3436;fill-opacity:1;stroke:none" />
    </g>
    <g
       id="g4077"
       transform="translate(114,355.93046)">
      <path
         sodipodi:type="arc"
         style="fill:#2e3436;fill-opacity:1;stroke:none"
         id="path4079"
         sodipodi:cx="364.28571"
         sodipodi:cy="475.42856"
         sodipodi:rx="27.142857"
         sodipodi:ry="37.142857"
         d="m 391.42856,475.42856 a 27.142857,37.142857 0 0 1 -27.14285,37.14285 27.142857,37.142857 0 0 1 -27.14286,-37.14285 27.142857,37.142857 0 0 1 27.14286,-37.14286 27.142857,37.142857 0 0 1 27.14285,37.14286 z"
         transform="matrix(1.4736842,0,0,1.0769231,-171.8421,-46.923538)" />
      <rect
         style="fill:#2e3436;fill-opacity:1;stroke:none"
         id="rect4081"
         width="277.79196"
         height="60"
         x="456.58896"
         y="435.07645" />
    </g>
  </g>
  <g
     inkscape:label="Pad"
     inkscape:groupmode="layer"
     id="g4202"
     transform="translate(0,-28.362183)"
     style="display:inline" />
  <g
     inkscape:groupmode="layer"
     id="layer4"
     inkscape:label="Flag"
     style="display:inline" />
  <g
     inkscape:groupmode="layer"
     id="layer2"
     inkscape:label="Clock"
     style="display:inline">
    <g
       id="g324"
       transform="translate(-1288,-792)">
      <ellipse
         ry="337.20776"
         rx="434.02719"
         cy="1413.5925"
         cx="1805.2395"
         id="path208-0"
         style="fill:#ffffff;fill-opacity:1;stroke-width:1.24947822" />
      <path
         inkscape:export-ydpi="3"
         inkscape:export-xdpi="3"
         inkscape:connector-curvature="0"
         id="path4016-0-2"
         d="m 1800.546,792 c -141.9752,0 -256.2729,17.1465 -256.2729,38.4348 v 71.5362 c 0,16.6314 69.7408,30.7437 167.9607,36.1159 v 68.5218 C 1471.2859,1039.7528 1288,1207.023 1288,1408.3478 1288,1633.5013 1517.1971,1816 1799.9636,1816 2082.7301,1816 2312,1633.5013 2312,1408.3478 c 0,-201.3248 -183.2858,-368.595 -424.2338,-401.7391 v -68.4638 c 98.7879,-5.3277 169.0528,-19.4816 169.0528,-36.1739 V 830.4348 C 2056.819,809.1465 1942.5213,792 1800.546,792 Z m -0.5824,342.6087 c 189.8575,0 343.7845,122.5646 343.7845,273.7391 0,151.1745 -153.927,273.6812 -343.7845,273.6812 -189.8575,0 -343.7116,-122.5067 -343.7116,-273.6812 0,-151.1745 153.8541,-273.7391 343.7116,-273.7391 z"
         style="display:inline;fill:#e6e6e6;fill-opacity:1;stroke:none;stroke-width:2.42582536" />
      <path
         inkscape:export-ydpi="3"
         inkscape:export-xdpi="3"
         sodipodi:end="6.2831853"
         sodipodi:start="4.712389"
         sodipodi:type="arc"
         style="display:inline;fill:#666666;fill-opacity:1;stroke:none;stroke-width:0.73516953"
         id="path3923-9-2-6"
         sodipodi:cx="1802.2075"
         sodipodi:cy="1408.257"
         sodipodi:rx="254.7849"
         sodipodi:ry="211.82414"
         d="m 1802.2075,1196.4328 a 254.7849,211.82414 0 0 1 254.7849,211.8242 l -254.7849,0 z" />
    </g>
    <text
       xml:space="preserve"
       style="font-style:normal;font-variant:normal;font-weight:bold;font-stretch:normal;font-size:35.0086174px;line-height:0%;font-family:Cambria;-inkscape-font-specification:'Cambria Bold';letter-spacing:0px;word-spacing:0px;display:inline;fill:#0066cc;fill-opacity:1;stroke:none;stroke-width:2.91738462"
       x="-89.66333"
       y="1375.8341"
       id="text4326-6"
       transform="scale(1.343588,0.74427577)"><tspan
         sodipodi:role="line"
         id="tspan4328-8"
         x="-89.66333"
         y="1375.8341"
         style="font-style:normal;font-variant:normal;font-weight:bold;font-stretch:normal;font-size:2040.33911133px;line-height:1.25;font-family:Cambria;-inkscape-font-specification:'Cambria Bold';fill:#0066cc;fill-opacity:1;stroke-width:2.91738462">?</tspan></text>
  </g>
</svg>
