<?xml version="1.0" encoding="UTF-8" standalone="no"?>
<!-- Created with Inkscape (http://www.inkscape.org/) -->

<svg
   xmlns:dc="http://purl.org/dc/elements/1.1/"
   xmlns:cc="http://creativecommons.org/ns#"
   xmlns:rdf="http://www.w3.org/1999/02/22-rdf-syntax-ns#"
   xmlns:svg="http://www.w3.org/2000/svg"
   xmlns="http://www.w3.org/2000/svg"
   xmlns:sodipodi="http://sodipodi.sourceforge.net/DTD/sodipodi-0.dtd"
   xmlns:inkscape="http://www.inkscape.org/namespaces/inkscape"
   width="1024"
   height="1024"
   id="svg3090"
   version="1.1"
   inkscape:version="0.92.2 (5c3e80d, 2017-08-06)"
   sodipodi:docname="About-Qt.svg"
   inkscape:export-filename="D:\RobertLohr\Programmieren\Cpp\WorkTracker\icon\Icon256.png"
   inkscape:export-xdpi="22.524746"
   inkscape:export-ydpi="22.524746">
  <sodipodi:namedview
     id="base"
     pagecolor="#ffffff"
     bordercolor="#666666"
     borderopacity="1.0"
     inkscape:pageopacity="0.0"
     inkscape:pageshadow="2"
     inkscape:zoom="0.35"
     inkscape:cx="305.14286"
     inkscape:cy="367.77501"
     inkscape:document-units="px"
     inkscape:current-layer="layer4"
     showgrid="false"
     inkscape:window-width="1920"
     inkscape:window-height="1017"
     inkscape:window-x="1912"
     inkscape:window-y="-8"
     inkscape:window-maximized="1" />
  <defs
     id="defs3092" />
  <metadata
     id="metadata3095">
    <rdf:RDF>
      <cc:Work
         rdf:about="">
        <dc:format>image/svg+xml</dc:format>
        <dc:type
           rdf:resource="http://purl.org/dc/dcmitype/StillImage" />
        <dc:title />
      </cc:Work>
    </rdf:RDF>
  </metadata>
  <g
     inkscape:label="Pad Kopie"
     inkscape:groupmode="layer"
     id="g4059"
     transform="translate(0,-28.362183)"
     style="display:none">
    <path
       style="fill:#2e3436;fill-opacity:1;stroke:none"
       d="m 644,29.487183 c -61.04053,0 -111.7878,26.168158 -122.28125,60.65625 l -82.71875,0 0,112.218747 410,0 0,-112.218747 -82.71875,0 C 755.7878,55.655341 705.04053,29.487183 644,29.487183 z m 0,40.78125 c 30.77015,0 55.71875,14.83344 55.71875,33.124997 0,18.29156 -24.9486,33.09375 -55.71875,33.09375 -30.77015,0 -55.71875,-14.80219 -55.71875,-33.09375 0,-18.291557 24.9486,-33.124997 55.71875,-33.124997 z m -380,67.093747 0,915.00002 760,0 0,-915.00002 -115,0 0,89.46875 0,25.53125 -530,0 0,-25.53125 0,-89.46875 -115,0 z"
       id="path4061"
       inkscape:connector-curvature="0" />
    <rect
       style="fill:#eeeeec;fill-opacity:1;stroke:none"
       id="rect4063"
       width="530"
       height="560"
       x="379"
       y="377.36218" />
    <path
       sodipodi:type="arc"
       style="fill:#2e3436;fill-opacity:1;stroke:none"
       id="path4067"
       sodipodi:cx="364.28571"
       sodipodi:cy="475.42856"
       sodipodi:rx="27.142857"
       sodipodi:ry="37.142857"
       d="m 391.42856,475.42856 a 27.142857,37.142857 0 0 1 -27.14285,37.14285 27.142857,37.142857 0 0 1 -27.14286,-37.14285 27.142857,37.142857 0 0 1 27.14286,-37.14286 27.142857,37.142857 0 0 1 27.14285,37.14286 z"
       transform="matrix(1.4736842,0,0,1.0769231,-57.8421,-18.282551)" />
    <rect
       style="fill:#2e3436;fill-opacity:1;stroke:none"
       id="rect4069"
       width="277.79196"
       height="60"
       x="570.58899"
       y="463.71744" />
    <g
       id="g4071"
       transform="translate(114,192.28574)">
      <path
         sodipodi:type="arc"
         style="fill:#2e3436;fill-opacity:1;stroke:none"
         id="path4073"
         sodipodi:cx="364.28571"
         sodipodi:cy="475.42856"
         sodipodi:rx="27.142857"
         sodipodi:ry="37.142857"
         d="m 391.42856,475.42856 a 27.142857,37.142857 0 0 1 -27.14285,37.14285 27.142857,37.142857 0 0 1 -27.14286,-37.14285 27.142857,37.142857 0 0 1 27.14286,-37.14286 27.142857,37.142857 0 0 1 27.14285,37.14286 z"
         transform="matrix(1.4736842,0,0,1.0769231,-171.8421,-46.923538)" />
      <rect
         style="fill:#2e3436;fill-opacity:1;stroke:none"
         id="rect4075"
         width="277.79196"
         height="60"
         x="456.58896"
         y="435.07645" />
    </g>
    <g
       transform="translate(114,355.93046)"
       id="g4077">
      <path
         transform="matrix(1.4736842,0,0,1.0769231,-171.8421,-46.923538)"
         d="m 391.42856,475.42856 a 27.142857,37.142857 0 0 1 -27.14285,37.14285 27.142857,37.142857 0 0 1 -27.14286,-37.14285 27.142857,37.142857 0 0 1 27.14286,-37.14286 27.142857,37.142857 0 0 1 27.14285,37.14286 z"
         sodipodi:ry="37.142857"
         sodipodi:rx="27.142857"
         sodipodi:cy="475.42856"
         sodipodi:cx="364.28571"
         id="path4079"
         style="fill:#2e3436;fill-opacity:1;stroke:none"
         sodipodi:type="arc" />
      <rect
         y="435.07645"
         x="456.58896"
         height="60"
         width="277.79196"
         id="rect4081"
         style="fill:#2e3436;fill-opacity:1;stroke:none" />
    </g>
  </g>
  <g
     style="display:none"
     transform="translate(0,-28.362183)"
     id="g4202"
     inkscape:groupmode="layer"
     inkscape:label="Pad">
    <path
       inkscape:connector-curvature="0"
       id="path4204"
       d="m 662.57143,29.487183 c -58.05735,0 -106.32449,26.168158 -116.3051,60.65625 l -78.6761,0 0,112.218747 389.9624,0 0,-112.218747 -78.6761,0 c -9.98061,-34.488092 -58.24776,-60.65625 -116.3051,-60.65625 z m 0,40.78125 c 29.26634,0 52.99565,14.83344 52.99565,33.124997 0,18.29156 -23.72931,33.09375 -52.99565,33.09375 -29.26635,0 -52.99565,-14.80219 -52.99565,-33.09375 0,-18.291557 23.7293,-33.124997 52.99565,-33.124997 z m -361.42857,67.093747 0,915.00002 722.85714,0 0,-915.00002 -109.3797,0 0,89.46875 0,25.53125 -504.09774,0 0,-25.53125 0,-89.46875 -109.3797,0 z"
       style="fill:#729fcf;fill-opacity:1;stroke:none" />
    <rect
       y="377.36218"
       x="410.52255"
       height="560"
       width="504.09775"
       id="rect4206"
       style="fill:#eeeeec;fill-opacity:1;stroke:none" />
    <path
       transform="matrix(1.4736842,0,0,1.0769231,-57.8421,-18.282551)"
       d="m 391.42856,475.42856 a 27.142857,37.142857 0 0 1 -27.14285,37.14285 27.142857,37.142857 0 0 1 -27.14286,-37.14285 27.142857,37.142857 0 0 1 27.14286,-37.14286 27.142857,37.142857 0 0 1 27.14285,37.14286 z"
       sodipodi:ry="37.142857"
       sodipodi:rx="27.142857"
       sodipodi:cy="475.42856"
       sodipodi:cx="364.28571"
       id="path4208"
       style="fill:#2e3436;fill-opacity:1;stroke:none"
       sodipodi:type="arc" />
    <rect
       y="463.71744"
       x="592.74817"
       height="60"
       width="264.21567"
       id="rect4210"
       style="fill:#729fcf;fill-opacity:1;stroke:none" />
    <g
       style="fill:#729fcf"
       transform="matrix(0.95112782,0,0,1,158.47368,192.28574)"
       id="g4212">
      <path
         transform="matrix(1.4736842,0,0,1.0769231,-171.8421,-46.923538)"
         d="m 391.42856,475.42856 a 27.142857,37.142857 0 0 1 -27.14285,37.14285 27.142857,37.142857 0 0 1 -27.14286,-37.14285 27.142857,37.142857 0 0 1 27.14286,-37.14286 27.142857,37.142857 0 0 1 27.14285,37.14286 z"
         sodipodi:ry="37.142857"
         sodipodi:rx="27.142857"
         sodipodi:cy="475.42856"
         sodipodi:cx="364.28571"
         id="path4214"
         style="fill:#729fcf;fill-opacity:1;stroke:none"
         sodipodi:type="arc" />
      <rect
         y="435.07645"
         x="456.58896"
         height="60"
         width="277.79196"
         id="rect4216"
         style="fill:#729fcf;fill-opacity:1;stroke:none" />
    </g>
    <g
       style="fill:#729fcf"
       id="g4218"
       transform="matrix(0.95112782,0,0,1,158.47368,355.93046)">
      <path
         sodipodi:type="arc"
         style="fill:#729fcf;fill-opacity:1;stroke:none"
         id="path4220"
         sodipodi:cx="364.28571"
         sodipodi:cy="475.42856"
         sodipodi:rx="27.142857"
         sodipodi:ry="37.142857"
         d="m 391.42856,475.42856 a 27.142857,37.142857 0 0 1 -27.14285,37.14285 27.142857,37.142857 0 0 1 -27.14286,-37.14285 27.142857,37.142857 0 0 1 27.14286,-37.14286 27.142857,37.142857 0 0 1 27.14285,37.14286 z"
         transform="matrix(1.4736842,0,0,1.0769231,-171.8421,-46.923538)" />
      <rect
         style="fill:#729fcf;fill-opacity:1;stroke:none"
         id="rect4222"
         width="277.79196"
         height="60"
         x="456.58896"
         y="435.07645" />
    </g>
  </g>
  <g
     style="display:inline"
     inkscape:label="Flag"
     id="layer4"
     inkscape:groupmode="layer">
    <path
       inkscape:connector-curvature="0"
       id="path3019"
       style="font-style:normal;font-weight:bold;font-size:810.46636963px;line-height:125%;font-family:Sans;-inkscape-font-specification:'Sans Bold';letter-spacing:0px;word-spacing:0px;display:inline;fill:#4e9a06;fill-opacity:1;stroke:none;stroke-width:1.27682102"
       d="m 887.14225,826.32921 c -68.39409,-2.88948 -117.41218,-21.21995 -147.77834,-54.8266 -30.12398,-33.33844 -45.09596,-86.4938 -45.09586,-159.66542 0,0 0,-288.11267 0,-288.11267 0,0 -61.10624,1.44427 -61.10624,1.44427 0,0 0,-132.81352 0,-132.81352 0,0 61.10624,-2.53461 61.10624,-2.53461 0,0 0,-176.160365 0,-176.160365 0,0 164.44163,-10.6806077 164.44163,-10.6806077 0,0 0,180.0202027 0,180.0202027 0,0 165.29032,-6.85609 165.29032,-6.85609 0,0 0,139.78692 0,139.78692 0,0 -165.29032,3.9069 -165.29032,3.9069 0,0 0,223.20268 0,223.20268 -2.1e-4,22.05876 0.1598,41.31497 0.48026,57.76969 0.31982,16.45653 2.88192,31.2698 7.69067,44.45121 4.49311,13.19172 12.44967,23.75756 23.89112,31.70366 11.47503,7.97007 28.26443,12.23255 50.43772,12.77195 9.16676,0.22317 21.23148,-1.75684 36.22122,-5.95258 15.04686,-4.21167 25.58133,-8.16071 31.56683,-11.8392 0,0 15.0025,0.32776 15.0025,0.32776 0,0 0,141.5056 0,141.5056 -18.994,4.95705 -39.05336,8.60719 -60.16106,10.95881 -20.99434,2.33889 -46.59056,2.8639 -76.69669,1.59201 0,0 0,0 0,0 M 593.12339,1015.3049 c -17.85561,4.1605 -35.69838,6.8593 -53.52799,8.1069 -17.7449,1.241 -45.36285,0.5155 -82.63091,-2.1514 -33.75957,-2.4165 -62.19513,-9.6327 -85.42832,-21.60721 -23.08473,-11.89801 -42.2086,-27.72974 -57.43399,-47.48903 -15.1612,-19.32902 -26.48958,-41.81698 -34.02151,-67.48474 -7.51653,-25.61357 -11.81422,-52.92033 -12.90449,-81.95433 C 182.06586,794.32583 116.49497,754.59921 69.422115,684.12028 22.984497,614.59292 0,522.57586 0,407.36717 0,288.17493 24.318866,192.86971 73.481588,120.68046 123.35646,47.446469 193.25979,7.2785121 284.39268,0.85220424 377.64645,-5.7222103 452.79868,25.715321 508.63549,96.097696 c 56.70085,71.474314 85.38222,172.783114 85.38287,303.092814 -6.5e-4,94.93555 -16.30058,176.26052 -48.68545,243.53002 -32.10346,66.68263 -76.99768,112.86613 -134.20983,138.6783 0.56712,38.39895 7.45727,65.2224 20.70673,80.50783 13.29704,15.34135 36.79378,23.9227 70.68866,25.71414 13.11991,0.69328 27.09371,-0.98356 41.93113,-5.04466 14.89626,-4.07779 25.62682,-8.11584 32.15501,-12.107 0,0 16.51878,0.82592 16.51878,0.82592 0,0 0,144.00984 0,144.00984 M 382.7118,600.40272 c 13.54113,-22.64932 24.01434,-49.18976 31.39247,-79.60414 7.39244,-30.47597 11.09455,-70.42943 11.09498,-119.81346 -4.3e-4,-46.91407 -3.91604,-86.76062 -11.73398,-119.48686 -7.80202,-32.65451 -18.20142,-59.25184 -31.17576,-79.78921 -13.48969,-20.78732 -28.67453,-35.38988 -45.53281,-43.83596 -16.77987,-8.40528 -34.10034,-12.14581 -51.95317,-11.2545 -18.85421,0.94263 -35.84578,6.00731 -51.00078,15.16833 -15.0906,9.12302 -29.58082,24.76487 -43.47793,46.88874 -12.24816,20.27248 -22.13489,46.85369 -29.68019,79.74376 -7.52947,32.81995 -11.28796,71.76612 -11.28774,116.89185 -2.2e-4,46.48349 3.56039,85.07266 10.6927,115.81458 7.14654,30.80552 16.96407,56.6807 29.47515,77.63415 12.82319,21.37541 27.44006,36.78306 43.87306,46.19711 16.50936,9.45843 33.64179,14.40205 51.40573,14.79909 18.12814,0.40542 35.79593,-4.15343 52.99586,-13.71264 17.28228,-9.60516 32.26292,-24.8121 44.91241,-45.64084 0,0 0,0 0,0"
       inkscape:export-xdpi="24"
       inkscape:export-ydpi="24" />
  </g>
  <g
     style="display:inline"
     inkscape:label="Clock"
     id="layer2"
     inkscape:groupmode="layer" />
</svg>
