<?xml version="1.0" encoding="UTF-8" standalone="no"?>
<!-- Created with Inkscape (http://www.inkscape.org/) -->

<svg
   xmlns:dc="http://purl.org/dc/elements/1.1/"
   xmlns:cc="http://creativecommons.org/ns#"
   xmlns:rdf="http://www.w3.org/1999/02/22-rdf-syntax-ns#"
   xmlns:svg="http://www.w3.org/2000/svg"
   xmlns="http://www.w3.org/2000/svg"
   xmlns:sodipodi="http://sodipodi.sourceforge.net/DTD/sodipodi-0.dtd"
   xmlns:inkscape="http://www.inkscape.org/namespaces/inkscape"
   width="1024"
   height="1024"
   id="svg3090"
   version="1.1"
   inkscape:version="0.92.2 (5c3e80d, 2017-08-06)"
   sodipodi:docname="About-Qt.svg"
   inkscape:export-filename="D:\RobertLohr\Programmieren\Cpp\WorkTracker\icon\Icon256.png"
   inkscape:export-xdpi="22.524746"
   inkscape:export-ydpi="22.524746">
  <sodipodi:namedview
     id="base"
     pagecolor="#ffffff"
     bordercolor="#666666"
     borderopacity="1.0"
     inkscape:pageopacity="0.0"
     inkscape:pageshadow="2"
     inkscape:zoom="0.175"
     inkscape:cx="-922.32035"
     inkscape:cy="1253.9087"
     inkscape:document-units="px"
     inkscape:current-layer="layer4"
     showgrid="false"
     inkscape:window-width="1920"
     inkscape:window-height="1017"
     inkscape:window-x="1912"
     inkscape:window-y="-8"
     inkscape:window-maximized="1" />
  <defs
     id="defs3092" />
  <metadata
     id="metadata3095">
    <rdf:RDF>
      <cc:Work
         rdf:about="">
        <dc:format>image/svg+xml</dc:format>
        <dc:type
           rdf:resource="http://purl.org/dc/dcmitype/StillImage" />
        <dc:title />
      </cc:Work>
    </rdf:RDF>
  </metadata>
  <g
     inkscape:label="Pad Kopie"
     inkscape:groupmode="layer"
     id="g4059"
     transform="translate(0,-28.362183)"
     style="display:none">
    <path
       style="fill:#2e3436;fill-opacity:1;stroke:none"
       d="m 644,29.487183 c -61.04053,0 -111.7878,26.168158 -122.28125,60.65625 l -82.71875,0 0,112.218747 410,0 0,-112.218747 -82.71875,0 C 755.7878,55.655341 705.04053,29.487183 644,29.487183 z m 0,40.78125 c 30.77015,0 55.71875,14.83344 55.71875,33.124997 0,18.29156 -24.9486,33.09375 -55.71875,33.09375 -30.77015,0 -55.71875,-14.80219 -55.71875,-33.09375 0,-18.291557 24.9486,-33.124997 55.71875,-33.124997 z m -380,67.093747 0,915.00002 760,0 0,-915.00002 -115,0 0,89.46875 0,25.53125 -530,0 0,-25.53125 0,-89.46875 -115,0 z"
       id="path4061"
       inkscape:connector-curvature="0" />
    <rect
       style="fill:#eeeeec;fill-opacity:1;stroke:none"
       id="rect4063"
       width="530"
       height="560"
       x="379"
       y="377.36218" />
    <path
       sodipodi:type="arc"
       style="fill:#2e3436;fill-opacity:1;stroke:none"
       id="path4067"
       sodipodi:cx="364.28571"
       sodipodi:cy="475.42856"
       sodipodi:rx="27.142857"
       sodipodi:ry="37.142857"
       d="m 391.42856,475.42856 a 27.142857,37.142857 0 0 1 -27.14285,37.14285 27.142857,37.142857 0 0 1 -27.14286,-37.14285 27.142857,37.142857 0 0 1 27.14286,-37.14286 27.142857,37.142857 0 0 1 27.14285,37.14286 z"
       transform="matrix(1.4736842,0,0,1.0769231,-57.8421,-18.282551)" />
    <rect
       style="fill:#2e3436;fill-opacity:1;stroke:none"
       id="rect4069"
       width="277.79196"
       height="60"
       x="570.58899"
       y="463.71744" />
    <g
       id="g4071"
       transform="translate(114,192.28574)">
      <path
         sodipodi:type="arc"
         style="fill:#2e3436;fill-opacity:1;stroke:none"
         id="path4073"
         sodipodi:cx="364.28571"
         sodipodi:cy="475.42856"
         sodipodi:rx="27.142857"
         sodipodi:ry="37.142857"
         d="m 391.42856,475.42856 a 27.142857,37.142857 0 0 1 -27.14285,37.14285 27.142857,37.142857 0 0 1 -27.14286,-37.14285 27.142857,37.142857 0 0 1 27.14286,-37.14286 27.142857,37.142857 0 0 1 27.14285,37.14286 z"
         transform="matrix(1.4736842,0,0,1.0769231,-171.8421,-46.923538)" />
      <rect
         style="fill:#2e3436;fill-opacity:1;stroke:none"
         id="rect4075"
         width="277.79196"
         height="60"
         x="456.58896"
         y="435.07645" />
    </g>
    <g
       transform="translate(114,355.93046)"
       id="g4077">
      <path
         transform="matrix(1.4736842,0,0,1.0769231,-171.8421,-46.923538)"
         d="m 391.42856,475.42856 a 27.142857,37.142857 0 0 1 -27.14285,37.14285 27.142857,37.142857 0 0 1 -27.14286,-37.14285 27.142857,37.142857 0 0 1 27.14286,-37.14286 27.142857,37.142857 0 0 1 27.14285,37.14286 z"
         sodipodi:ry="37.142857"
         sodipodi:rx="27.142857"
         sodipodi:cy="475.42856"
         sodipodi:cx="364.28571"
         id="path4079"
         style="fill:#2e3436;fill-opacity:1;stroke:none"
         sodipodi:type="arc" />
      <rect
         y="435.07645"
         x="456.58896"
         height="60"
         width="277.79196"
         id="rect4081"
         style="fill:#2e3436;fill-opacity:1;stroke:none" />
    </g>
  </g>
  <g
     style="display:none"
     transform="translate(0,-28.362183)"
     id="g4202"
     inkscape:groupmode="layer"
     inkscape:label="Pad">
    <path
       inkscape:connector-curvature="0"
       id="path4204"
       d="m 662.57143,29.487183 c -58.05735,0 -106.32449,26.168158 -116.3051,60.65625 l -78.6761,0 0,112.218747 389.9624,0 0,-112.218747 -78.6761,0 c -9.98061,-34.488092 -58.24776,-60.65625 -116.3051,-60.65625 z m 0,40.78125 c 29.26634,0 52.99565,14.83344 52.99565,33.124997 0,18.29156 -23.72931,33.09375 -52.99565,33.09375 -29.26635,0 -52.99565,-14.80219 -52.99565,-33.09375 0,-18.291557 23.7293,-33.124997 52.99565,-33.124997 z m -361.42857,67.093747 0,915.00002 722.85714,0 0,-915.00002 -109.3797,0 0,89.46875 0,25.53125 -504.09774,0 0,-25.53125 0,-89.46875 -109.3797,0 z"
       style="fill:#729fcf;fill-opacity:1;stroke:none" />
    <rect
       y="377.36218"
       x="410.52255"
       height="560"
       width="504.09775"
       id="rect4206"
       style="fill:#eeeeec;fill-opacity:1;stroke:none" />
    <path
       transform="matrix(1.4736842,0,0,1.0769231,-57.8421,-18.282551)"
       d="m 391.42856,475.42856 a 27.142857,37.142857 0 0 1 -27.14285,37.14285 27.142857,37.142857 0 0 1 -27.14286,-37.14285 27.142857,37.142857 0 0 1 27.14286,-37.14286 27.142857,37.142857 0 0 1 27.14285,37.14286 z"
       sodipodi:ry="37.142857"
       sodipodi:rx="27.142857"
       sodipodi:cy="475.42856"
       sodipodi:cx="364.28571"
       id="path4208"
       style="fill:#2e3436;fill-opacity:1;stroke:none"
       sodipodi:type="arc" />
    <rect
       y="463.71744"
       x="592.74817"
       height="60"
       width="264.21567"
       id="rect4210"
       style="fill:#729fcf;fill-opacity:1;stroke:none" />
    <g
       style="fill:#729fcf"
       transform="matrix(0.95112782,0,0,1,158.47368,192.28574)"
       id="g4212">
      <path
         transform="matrix(1.4736842,0,0,1.0769231,-171.8421,-46.923538)"
         d="m 391.42856,475.42856 a 27.142857,37.142857 0 0 1 -27.14285,37.14285 27.142857,37.142857 0 0 1 -27.14286,-37.14285 27.142857,37.142857 0 0 1 27.14286,-37.14286 27.142857,37.142857 0 0 1 27.14285,37.14286 z"
         sodipodi:ry="37.142857"
         sodipodi:rx="27.142857"
         sodipodi:cy="475.42856"
         sodipodi:cx="364.28571"
         id="path4214"
         style="fill:#729fcf;fill-opacity:1;stroke:none"
         sodipodi:type="arc" />
      <rect
         y="435.07645"
         x="456.58896"
         height="60"
         width="277.79196"
         id="rect4216"
         style="fill:#729fcf;fill-opacity:1;stroke:none" />
    </g>
    <g
       style="fill:#729fcf"
       id="g4218"
       transform="matrix(0.95112782,0,0,1,158.47368,355.93046)">
      <path
         sodipodi:type="arc"
         style="fill:#729fcf;fill-opacity:1;stroke:none"
         id="path4220"
         sodipodi:cx="364.28571"
         sodipodi:cy="475.42856"
         sodipodi:rx="27.142857"
         sodipodi:ry="37.142857"
         d="m 391.42856,475.42856 a 27.142857,37.142857 0 0 1 -27.14285,37.14285 27.142857,37.142857 0 0 1 -27.14286,-37.14285 27.142857,37.142857 0 0 1 27.14286,-37.14286 27.142857,37.142857 0 0 1 27.14285,37.14286 z"
         transform="matrix(1.4736842,0,0,1.0769231,-171.8421,-46.923538)" />
      <rect
         style="fill:#729fcf;fill-opacity:1;stroke:none"
         id="rect4222"
         width="277.79196"
         height="60"
         x="456.58896"
         y="435.07645" />
    </g>
  </g>
  <g
     style="display:inline"
     inkscape:label="Flag"
     id="layer4"
     inkscape:groupmode="layer">
    <rect
       style="display:inline;fill:#4e9a06;fill-opacity:1;stroke-width:2.49099207"
       y="0"
       x="0"
       height="1024"
       width="1024"
       id="rect4479-9-0-5"
       inkscape:export-xdpi="24"
       inkscape:export-ydpi="24" />
    <path
       inkscape:connector-curvature="0"
       id="path3019"
       style="font-style:normal;font-weight:bold;font-size:810.46636963px;line-height:125%;font-family:Sans;-inkscape-font-specification:'Sans Bold';letter-spacing:0px;word-spacing:0px;display:inline;fill:#eeeeec;fill-opacity:1;stroke:none"
       d="m 818.75834,747.78942 c -55.92667,-2.1675 -96.00936,-15.91783 -120.84013,-41.12736 -24.63274,-25.00834 -36.87551,-64.88205 -36.87543,-119.77066 0,0 0,-216.12347 0,-216.12347 0,0 -49.96731,1.0834 -49.96731,1.0834 0,0 0,-99.6281 0,-99.6281 0,0 49.96731,-1.9013 49.96731,-1.9013 0,0 0,-132.1441 0,-132.1441 0,0 134.4659,-8.0119 134.4659,-8.0119 0,0 0,135.0395 0,135.0395 0,0 135.15989,-5.143 135.15989,-5.143 0,0 0,104.8591 0,104.8591 0,0 -135.15989,2.9307 -135.15989,2.9307 0,0 0,167.4322 0,167.4322 -1.7e-4,16.54705 0.13067,30.99181 0.39272,43.33508 0.26152,12.34462 2.35658,23.45658 6.28875,33.34442 3.67407,9.89557 10.18025,17.82138 19.53606,23.78203 9.38327,5.97863 23.11216,9.17607 41.24353,9.58069 7.49577,0.16741 17.36124,-1.31787 29.61853,-4.46524 12.304,-3.15932 20.9182,-6.12164 25.8126,-8.881 0,0 12.2677,0.24586 12.2677,0.24586 0,0 0,106.14834 0,106.14834 -15.5316,3.71846 -31.9344,6.45656 -49.19442,8.22059 -17.16733,1.75448 -38.09767,2.14831 -62.71581,1.19422 0,0 0,0 0,0 M 578.33557,889.54671 c -14.60074,3.12099 -29.19099,5.14547 -43.77048,6.08133 -14.51022,0.93095 -37.09375,0.3867 -67.56829,-1.61393 -27.60561,-1.81262 -50.85771,-7.22571 -69.85577,-16.20825 -18.87666,-8.92513 -34.51448,-20.80107 -46.96446,-35.62321 -12.3975,-14.49938 -21.66085,-31.36839 -27.8198,-50.62268 -6.14636,-19.21364 -9.66063,-39.6974 -10.55216,-61.47683 -69.59573,-6.30058 -123.21384,-36.10092 -161.70588,-88.96965 -37.9726,-52.15492 -56.7673,-121.18016 -56.7673,-207.60226 0,-89.4103 19.88583,-160.9021 60.08678,-215.0538 40.78328,-54.9354 97.94408,-85.0668 172.46454,-89.8874 76.25473,-4.9317 137.70762,18.6507 183.36605,71.447 46.36497,53.6154 69.81807,129.6107 69.8186,227.3606 -5.3e-4,71.2145 -13.32918,132.21923 -39.81068,182.68045 -26.25138,50.02099 -62.96193,84.66486 -109.74499,104.02748 0.46374,28.80441 6.0979,48.92562 16.93214,60.39176 10.87315,11.50809 30.08672,17.94526 57.80297,19.28908 10.72831,0.52006 22.15485,-0.7378 34.28759,-3.78417 12.18085,-3.0589 20.95536,-6.08798 26.29354,-9.08189 0,0 13.5076,0.61955 13.5076,0.61955 0,0 0,108.02682 0,108.02682 M 406.27948,578.314 c 11.07275,-16.99005 19.63682,-36.89897 25.67,-59.71387 6.04489,-22.8611 9.07215,-52.8316 9.0725,-89.8763 -3.5e-4,-35.1919 -3.20219,-65.0822 -9.59502,-89.6313 -6.3798,-24.4953 -14.88352,-44.4469 -25.49279,-59.8527 -11.03068,-15.5933 -23.44751,-26.5472 -37.23273,-32.8829 -13.7211,-6.3051 -27.88426,-9.111 -42.48273,-8.4424 -15.41732,0.7071 -29.31153,4.5063 -41.70395,11.3783 -12.33977,6.8435 -24.1886,18.577 -35.55243,35.1729 -10.01547,15.2071 -18.09997,35.1466 -24.26985,59.8186 -6.15694,24.6194 -9.2303,53.8343 -9.23012,87.6847 -1.8e-4,34.8689 2.91137,63.816 8.74355,86.8766 5.84381,23.1083 13.87172,42.51819 24.10218,58.23611 10.48568,16.03445 22.43807,27.59227 35.87553,34.65408 13.49991,7.0951 27.5093,10.80348 42.03509,11.10132 14.8236,0.30412 29.27076,-3.11564 43.33535,-10.28634 14.13193,-7.20517 26.38178,-18.61243 36.72542,-34.2368 0,0 0,0 0,0"
       inkscape:export-xdpi="24"
       inkscape:export-ydpi="24" />
  </g>
  <g
     style="display:inline"
     inkscape:label="Clock"
     id="layer2"
     inkscape:groupmode="layer" />
</svg>
