<?xml version="1.0" encoding="UTF-8" standalone="no"?>
<!-- Created with Inkscape (http://www.inkscape.org/) -->

<svg
   xmlns:dc="http://purl.org/dc/elements/1.1/"
   xmlns:cc="http://creativecommons.org/ns#"
   xmlns:rdf="http://www.w3.org/1999/02/22-rdf-syntax-ns#"
   xmlns:svg="http://www.w3.org/2000/svg"
   xmlns="http://www.w3.org/2000/svg"
   xmlns:sodipodi="http://sodipodi.sourceforge.net/DTD/sodipodi-0.dtd"
   xmlns:inkscape="http://www.inkscape.org/namespaces/inkscape"
   inkscape:export-ydpi="22.524746"
   inkscape:export-xdpi="22.524746"
   inkscape:export-filename="D:\RobertLohr\Programmieren\Cpp\WorkTracker\icon\Icon256.png"
   sodipodi:docname="Flag_en_US.svg"
   inkscape:version="0.48.4 r"
   version="1.1"
   id="svg3090"
   height="1024"
   width="1024">
  <sodipodi:namedview
     id="base"
     pagecolor="#ffffff"
     bordercolor="#666666"
     borderopacity="1.0"
     inkscape:pageopacity="0.0"
     inkscape:pageshadow="2"
     inkscape:zoom="0.35"
     inkscape:cx="-280.29697"
     inkscape:cy="1108.7036"
     inkscape:document-units="px"
     inkscape:current-layer="svg3090"
     showgrid="false"
     inkscape:window-width="1856"
     inkscape:window-height="1057"
     inkscape:window-x="56"
     inkscape:window-y="475"
     inkscape:window-maximized="1" />
  <defs
     id="defs3092" />
  <metadata
     id="metadata3095">
    <rdf:RDF>
      <cc:Work
         rdf:about="">
        <dc:format>image/svg+xml</dc:format>
        <dc:type
           rdf:resource="http://purl.org/dc/dcmitype/StillImage" />
        <dc:title />
      </cc:Work>
    </rdf:RDF>
  </metadata>
  <g
     inkscape:label="Pad Kopie"
     inkscape:groupmode="layer"
     id="g4059"
     transform="translate(0,-28.362183)"
     style="display:none">
    <path
       style="fill:#2e3436;fill-opacity:1;stroke:none"
       d="m 644,29.487183 c -61.04053,0 -111.7878,26.168158 -122.28125,60.65625 l -82.71875,0 0,112.218747 410,0 0,-112.218747 -82.71875,0 C 755.7878,55.655341 705.04053,29.487183 644,29.487183 z m 0,40.78125 c 30.77015,0 55.71875,14.83344 55.71875,33.124997 0,18.29156 -24.9486,33.09375 -55.71875,33.09375 -30.77015,0 -55.71875,-14.80219 -55.71875,-33.09375 0,-18.291557 24.9486,-33.124997 55.71875,-33.124997 z m -380,67.093747 0,915.00002 760,0 0,-915.00002 -115,0 0,89.46875 0,25.53125 -530,0 0,-25.53125 0,-89.46875 -115,0 z"
       id="path4061"
       inkscape:connector-curvature="0" />
    <rect
       style="fill:#eeeeec;fill-opacity:1;stroke:none"
       id="rect4063"
       width="530"
       height="560"
       x="379"
       y="377.36218" />
    <path
       sodipodi:type="arc"
       style="fill:#2e3436;fill-opacity:1;stroke:none"
       id="path4067"
       sodipodi:cx="364.28571"
       sodipodi:cy="475.42856"
       sodipodi:rx="27.142857"
       sodipodi:ry="37.142857"
       d="m 391.42856,475.42856 c 0,20.51343 -12.15227,37.14285 -27.14285,37.14285 -14.99059,0 -27.14286,-16.62942 -27.14286,-37.14285 0,-20.51343 12.15227,-37.14286 27.14286,-37.14286 14.99058,0 27.14285,16.62943 27.14285,37.14286 z"
       transform="matrix(1.4736842,0,0,1.0769231,-57.8421,-18.282551)" />
    <rect
       style="fill:#2e3436;fill-opacity:1;stroke:none"
       id="rect4069"
       width="277.79196"
       height="60"
       x="570.58899"
       y="463.71744" />
    <g
       id="g4071"
       transform="translate(114,192.28574)">
      <path
         sodipodi:type="arc"
         style="fill:#2e3436;fill-opacity:1;stroke:none"
         id="path4073"
         sodipodi:cx="364.28571"
         sodipodi:cy="475.42856"
         sodipodi:rx="27.142857"
         sodipodi:ry="37.142857"
         d="m 391.42856,475.42856 c 0,20.51343 -12.15227,37.14285 -27.14285,37.14285 -14.99059,0 -27.14286,-16.62942 -27.14286,-37.14285 0,-20.51343 12.15227,-37.14286 27.14286,-37.14286 14.99058,0 27.14285,16.62943 27.14285,37.14286 z"
         transform="matrix(1.4736842,0,0,1.0769231,-171.8421,-46.923538)" />
      <rect
         style="fill:#2e3436;fill-opacity:1;stroke:none"
         id="rect4075"
         width="277.79196"
         height="60"
         x="456.58896"
         y="435.07645" />
    </g>
    <g
       transform="translate(114,355.93046)"
       id="g4077">
      <path
         transform="matrix(1.4736842,0,0,1.0769231,-171.8421,-46.923538)"
         d="m 391.42856,475.42856 c 0,20.51343 -12.15227,37.14285 -27.14285,37.14285 -14.99059,0 -27.14286,-16.62942 -27.14286,-37.14285 0,-20.51343 12.15227,-37.14286 27.14286,-37.14286 14.99058,0 27.14285,16.62943 27.14285,37.14286 z"
         sodipodi:ry="37.142857"
         sodipodi:rx="27.142857"
         sodipodi:cy="475.42856"
         sodipodi:cx="364.28571"
         id="path4079"
         style="fill:#2e3436;fill-opacity:1;stroke:none"
         sodipodi:type="arc" />
      <rect
         y="435.07645"
         x="456.58896"
         height="60"
         width="277.79196"
         id="rect4081"
         style="fill:#2e3436;fill-opacity:1;stroke:none" />
    </g>
  </g>
  <g
     style="display:none"
     transform="translate(0,-28.362183)"
     id="g4202"
     inkscape:groupmode="layer"
     inkscape:label="Pad">
    <path
       inkscape:connector-curvature="0"
       id="path4204"
       d="m 662.57143,29.487183 c -58.05735,0 -106.32449,26.168158 -116.3051,60.65625 l -78.6761,0 0,112.218747 389.9624,0 0,-112.218747 -78.6761,0 c -9.98061,-34.488092 -58.24776,-60.65625 -116.3051,-60.65625 z m 0,40.78125 c 29.26634,0 52.99565,14.83344 52.99565,33.124997 0,18.29156 -23.72931,33.09375 -52.99565,33.09375 -29.26635,0 -52.99565,-14.80219 -52.99565,-33.09375 0,-18.291557 23.7293,-33.124997 52.99565,-33.124997 z m -361.42857,67.093747 0,915.00002 722.85714,0 0,-915.00002 -109.3797,0 0,89.46875 0,25.53125 -504.09774,0 0,-25.53125 0,-89.46875 -109.3797,0 z"
       style="fill:#729fcf;fill-opacity:1;stroke:none" />
    <rect
       y="377.36218"
       x="410.52255"
       height="560"
       width="504.09775"
       id="rect4206"
       style="fill:#eeeeec;fill-opacity:1;stroke:none" />
    <path
       transform="matrix(1.4736842,0,0,1.0769231,-57.8421,-18.282551)"
       d="m 391.42856,475.42856 c 0,20.51343 -12.15227,37.14285 -27.14285,37.14285 -14.99059,0 -27.14286,-16.62942 -27.14286,-37.14285 0,-20.51343 12.15227,-37.14286 27.14286,-37.14286 14.99058,0 27.14285,16.62943 27.14285,37.14286 z"
       sodipodi:ry="37.142857"
       sodipodi:rx="27.142857"
       sodipodi:cy="475.42856"
       sodipodi:cx="364.28571"
       id="path4208"
       style="fill:#2e3436;fill-opacity:1;stroke:none"
       sodipodi:type="arc" />
    <rect
       y="463.71744"
       x="592.74817"
       height="60"
       width="264.21567"
       id="rect4210"
       style="fill:#729fcf;fill-opacity:1;stroke:none" />
    <g
       style="fill:#729fcf"
       transform="matrix(0.95112782,0,0,1,158.47368,192.28574)"
       id="g4212">
      <path
         transform="matrix(1.4736842,0,0,1.0769231,-171.8421,-46.923538)"
         d="m 391.42856,475.42856 c 0,20.51343 -12.15227,37.14285 -27.14285,37.14285 -14.99059,0 -27.14286,-16.62942 -27.14286,-37.14285 0,-20.51343 12.15227,-37.14286 27.14286,-37.14286 14.99058,0 27.14285,16.62943 27.14285,37.14286 z"
         sodipodi:ry="37.142857"
         sodipodi:rx="27.142857"
         sodipodi:cy="475.42856"
         sodipodi:cx="364.28571"
         id="path4214"
         style="fill:#729fcf;fill-opacity:1;stroke:none"
         sodipodi:type="arc" />
      <rect
         y="435.07645"
         x="456.58896"
         height="60"
         width="277.79196"
         id="rect4216"
         style="fill:#729fcf;fill-opacity:1;stroke:none" />
    </g>
    <g
       style="fill:#729fcf"
       id="g4218"
       transform="matrix(0.95112782,0,0,1,158.47368,355.93046)">
      <path
         sodipodi:type="arc"
         style="fill:#729fcf;fill-opacity:1;stroke:none"
         id="path4220"
         sodipodi:cx="364.28571"
         sodipodi:cy="475.42856"
         sodipodi:rx="27.142857"
         sodipodi:ry="37.142857"
         d="m 391.42856,475.42856 c 0,20.51343 -12.15227,37.14285 -27.14285,37.14285 -14.99059,0 -27.14286,-16.62942 -27.14286,-37.14285 0,-20.51343 12.15227,-37.14286 27.14286,-37.14286 14.99058,0 27.14285,16.62943 27.14285,37.14286 z"
         transform="matrix(1.4736842,0,0,1.0769231,-171.8421,-46.923538)" />
      <rect
         style="fill:#729fcf;fill-opacity:1;stroke:none"
         id="rect4222"
         width="277.79196"
         height="60"
         x="456.58896"
         y="435.07645" />
    </g>
  </g>
  <g
     style="display:inline"
     inkscape:label="Flag"
     id="layer4"
     inkscape:groupmode="layer" />
  <g
     style="display:inline"
     inkscape:label="Clock"
     id="layer2"
     inkscape:groupmode="layer" />
  <path
     inkscape:connector-curvature="0"
     id="path6896-0"
     d="M 0,66.418736 C 0,66.418736 1024,0 1024,0 c 0,0 0,1024 0,1024 0,0 -1024,-67.41857 -1024,-67.41857 0,0 0,-890.162694 0,-890.162694"
     style="fill:#eeeeec;fill-opacity:1;stroke:none;display:inline" />
  <path
     style="fill:none;stroke:#000000;stroke-width:1.00041962px;stroke-linecap:butt;stroke-linejoin:miter;stroke-opacity:1"
     d="m -1185.7143,194.64701 0,-889.293 1025.85692,-66.35384 0,1022.99954 z"
     id="path8085"
     inkscape:connector-curvature="0"
     sodipodi:nodetypes="ccccc" />
  <path
     style="fill:#d40000;fill-opacity:1;stroke:none;display:inline"
     d="M 9.981899e-5,66.418732 C 9.981899e-5,66.418732 1024,0 1024,0 c 0,0 0,113.77778 0,113.77778 0,0 -1023.99990018101,51.54792 -1023.99990018101,51.54792 0,0 0,-98.906968 0,-98.906968"
     id="path8545"
     inkscape:connector-curvature="0" />
  <path
     style="fill:#d40000;fill-opacity:1;stroke:none;display:inline"
     d="M 9.981899e-5,462.04658 C 9.981899e-5,462.04658 1024,455.1111 1024,455.1111 c 0,0 0,113.77779 0,113.77779 0,0 -1023.99990018101,-7.93532 -1023.99990018101,-7.93532 0,0 0,-98.90699 0,-98.90699"
     id="path8543"
     inkscape:connector-curvature="0" />
  <path
     style="fill:#d40000;fill-opacity:1;stroke:none;display:inline"
     d="M 9.981899e-5,264.23269 C 9.981899e-5,264.23269 1024,227.55558 1024,227.55558 c 0,0 0,113.77778 0,113.77778 0,0 -1023.99990018101,21.80629 -1023.99990018101,21.80629 0,0 0,-98.90696 0,-98.90696"
     id="path8541"
     inkscape:connector-curvature="0" />
  <path
     style="fill:#d40000;fill-opacity:1;stroke:none;display:inline"
     d="M 9.981899e-5,659.86052 C 9.981899e-5,659.86052 1024,682.66665 1024,682.66665 c 0,0 0,113.77779 0,113.77779 0,0 -1023.99990018101,-37.67696 -1023.99990018101,-37.67696 0,0 0,-98.90696 0,-98.90696"
     id="path8539"
     inkscape:connector-curvature="0" />
  <path
     style="fill:#d40000;fill-opacity:1;stroke:none;display:inline"
     d="M 9.981899e-5,857.67444 C 9.981899e-5,857.67444 1024,910.22219 1024,910.22219 c 0,0 0,113.77781 0,113.77781 C 1024,1024 9.981899e-5,956.58144 9.981899e-5,956.58144 c 0,0 0,-98.907 0,-98.907"
     id="rect6865-5"
     inkscape:connector-curvature="0" />
  <path
     style="fill:#204a87;fill-opacity:1;stroke:none;display:inline"
     d="m 0,66.418752 c 0,0 476.20117,-30.887387 476.20117,-30.887387 0,0 0,526.691295 0,526.691295 0,0 -476.20117,-3.53202 -476.20117,-3.53202 0,0 0,-492.271888 0,-492.271888"
     id="path8547"
     inkscape:connector-curvature="0" />
  <path
     id="path8426"
     d="m 131.16435,518.13851 c 0,0 -34.75877,-22.67511 -34.75877,-22.67511 0,0 -34.259275,22.8917 -34.259275,22.8917 0,0 10.893846,-39.58699 10.893846,-39.58699 0,0 -32.162578,-25.11396 -32.162578,-25.11396 0,0 40.954634,-2.25594 40.954634,-2.25594 0,0 14.292483,-38.79145 14.292483,-38.79145 0,0 14.6148,38.42005 14.6148,38.42005 0,0 41.80898,1.22083 41.80898,1.22083 0,0 -32.73364,26.10482 -32.73364,26.10482 0,0 11.34952,39.78605 11.34952,39.78605"
     style="fill:#eeeeec;fill-opacity:1;stroke:none;display:inline"
     inkscape:connector-curvature="0" />
  <path
     id="path8424"
     d="m 269.21152,518.16603 c 0,0 -36.15185,-23.12404 -36.15185,-23.12404 0,0 -35.62539,23.34462 -35.62539,23.34462 0,0 11.32746,-40.36776 11.32746,-40.36776 0,0 -33.44076,-25.60339 -33.44076,-25.60339 0,0 42.58318,-2.30805 42.58318,-2.30805 0,0 14.86344,-39.56193 14.86344,-39.56193 0,0 15.19964,39.17763 15.19964,39.17763 0,0 43.48904,1.23716 43.48904,1.23716 0,0 -34.04986,26.62947 -34.04986,26.62947 0,0 11.8051,40.57629 11.8051,40.57629"
     style="fill:#eeeeec;fill-opacity:1;stroke:none;display:inline"
     inkscape:connector-curvature="0" />
  <path
     id="path8422"
     d="m 412.86302,518.19466 c 0,0 -37.63046,-23.59113 -37.63046,-23.59113 0,0 -37.07487,23.81584 -37.07487,23.81584 0,0 11.78743,-41.17996 11.78743,-41.17996 0,0 -34.7966,-26.11227 -34.7966,-26.11227 0,0 44.31104,-2.36257 44.31104,-2.36257 0,0 15.46895,-40.36364 15.46895,-40.36364 0,0 15.82031,39.96571 15.82031,39.96571 0,0 45.27261,1.25382 45.27261,1.25382 0,0 -35.44722,27.17563 -35.44722,27.17563 0,0 12.28881,41.39857 12.28881,41.39857"
     style="fill:#eeeeec;fill-opacity:1;stroke:none;display:inline"
     inkscape:connector-curvature="0" />
  <path
     id="path8420"
     d="m 200.39561,365.06273 c 0,0 -35.45401,-22.1258 -35.45401,-22.1258 0,0 -34.94114,23.88212 -34.94114,23.88212 0,0 11.11035,-40.22128 11.11035,-40.22128 0,0 -32.80052,-24.64297 -32.80052,-24.64297 0,0 41.76736,-3.19441 41.76736,-3.19441 0,0 14.57747,-39.49629 14.57747,-39.49629 0,0 14.90667,38.47439 14.90667,38.47439 0,0 42.64746,0.29746 42.64746,0.29746 0,0 -33.39055,27.0973 -33.39055,27.0973 0,0 11.57691,39.92948 11.57691,39.92948"
     style="fill:#eeeeec;fill-opacity:1;stroke:none;display:inline"
     inkscape:connector-curvature="0" />
  <path
     id="path8418"
     d="m 341.2391,362.0142 c 0,0 -36.8896,-22.55243 -36.8896,-22.55243 0,0 -36.34859,24.37491 -36.34859,24.37491 0,0 11.55705,-41.02749 11.55705,-41.02749 0,0 -34.11734,-25.11334 -34.11734,-25.11334 0,0 43.44532,-3.28437 43.44532,-3.28437 0,0 15.1656,-40.29521 15.1656,-40.29521 0,0 15.50928,39.23404 15.50928,39.23404 0,0 44.37892,0.27614 44.37892,0.27614 0,0 -34.74709,27.6623 -34.74709,27.6623 0,0 12.04645,40.72545 12.04645,40.72545"
     style="fill:#eeeeec;fill-opacity:1;stroke:none;display:inline"
     inkscape:connector-curvature="0" />
  <path
     id="path8416"
     d="m 131.16435,211.69429 c 0,0 -34.75877,-21.14008 -34.75877,-21.14008 0,0 -34.259275,24.40468 -34.259275,24.40468 0,0 10.893846,-40.06809 10.893846,-40.06809 0,0 -32.162578,-23.69359 -32.162578,-23.69359 0,0 40.954634,-4.0646 40.954634,-4.0646 0,0 14.292483,-39.42264 14.292483,-39.42264 0,0 14.6148,37.77463 14.6148,37.77463 0,0 41.80898,-0.62555 41.80898,-0.62555 0,0 -32.73364,27.55041 -32.73364,27.55041 0,0 11.34952,39.28483 11.34952,39.28483"
     style="fill:#eeeeec;fill-opacity:1;stroke:none;display:inline"
     inkscape:connector-curvature="0" />
  <path
     id="path8414"
     d="m 269.21152,205.62531 c 0,0 -36.15185,-21.52748 -36.15185,-21.52748 0,0 -35.62539,24.91792 -35.62539,24.91792 0,0 11.32746,-40.86802 11.32746,-40.86802 0,0 -33.44076,-24.12657 -33.44076,-24.12657 0,0 42.58318,-4.18863 42.58318,-4.18863 0,0 14.86344,-40.218336 14.86344,-40.218336 0,0 15.19964,38.506406 15.19964,38.506406 0,0 43.48904,-0.68343 43.48904,-0.68343 0,0 -34.04986,28.13318 -34.04986,28.13318 0,0 11.8051,40.05496 11.8051,40.05496"
     style="fill:#eeeeec;fill-opacity:1;stroke:none;display:inline"
     inkscape:connector-curvature="0" />
  <path
     id="path8412"
     d="m 412.86302,199.30996 c 0,0 -37.63046,-21.92928 -37.63046,-21.92928 0,0 -37.07487,25.45315 -37.07487,25.45315 0,0 11.78743,-41.70052 11.78743,-41.70052 0,0 -34.7966,-24.57557 -34.7966,-24.57557 0,0 44.31104,-4.31946 44.31104,-4.31946 0,0 15.46895,-41.046795 15.46895,-41.046795 0,0 15.82031,39.267065 15.82031,39.267065 0,0 45.27261,-0.74553 45.27261,-0.74553 0,0 -35.44722,28.74106 -35.44722,28.74106 0,0 12.28881,40.85588 12.28881,40.85588"
     style="fill:#eeeeec;fill-opacity:1;stroke:none;display:inline"
     inkscape:connector-curvature="0" />
</svg>
