<?xml version="1.0" encoding="UTF-8" standalone="no"?>
<!-- Created with Inkscape (http://www.inkscape.org/) -->

<svg
   xmlns:dc="http://purl.org/dc/elements/1.1/"
   xmlns:cc="http://creativecommons.org/ns#"
   xmlns:rdf="http://www.w3.org/1999/02/22-rdf-syntax-ns#"
   xmlns:svg="http://www.w3.org/2000/svg"
   xmlns="http://www.w3.org/2000/svg"
   xmlns:sodipodi="http://sodipodi.sourceforge.net/DTD/sodipodi-0.dtd"
   xmlns:inkscape="http://www.inkscape.org/namespaces/inkscape"
   width="1024"
   height="1024"
   id="svg3090"
   version="1.1"
   inkscape:version="0.48.4 r"
   sodipodi:docname="Flag_de_DE.svg"
   inkscape:export-filename="D:\RobertLohr\Programmieren\Cpp\WorkTracker\icon\Icon256.png"
   inkscape:export-xdpi="22.524746"
   inkscape:export-ydpi="22.524746">
  <sodipodi:namedview
     id="base"
     pagecolor="#ffffff"
     bordercolor="#666666"
     borderopacity="1.0"
     inkscape:pageopacity="0.0"
     inkscape:pageshadow="2"
     inkscape:zoom="0.35"
     inkscape:cx="-277.43983"
     inkscape:cy="994.41789"
     inkscape:document-units="px"
     inkscape:current-layer="layer4"
     showgrid="false"
     inkscape:window-width="1856"
     inkscape:window-height="1057"
     inkscape:window-x="56"
     inkscape:window-y="475"
     inkscape:window-maximized="1" />
  <defs
     id="defs3092" />
  <metadata
     id="metadata3095">
    <rdf:RDF>
      <cc:Work
         rdf:about="">
        <dc:format>image/svg+xml</dc:format>
        <dc:type
           rdf:resource="http://purl.org/dc/dcmitype/StillImage" />
        <dc:title />
      </cc:Work>
    </rdf:RDF>
  </metadata>
  <g
     inkscape:label="Pad Kopie"
     inkscape:groupmode="layer"
     id="g4059"
     transform="translate(0,-28.362183)"
     style="display:none">
    <path
       style="fill:#2e3436;fill-opacity:1;stroke:none"
       d="m 644,29.487183 c -61.04053,0 -111.7878,26.168158 -122.28125,60.65625 l -82.71875,0 0,112.218747 410,0 0,-112.218747 -82.71875,0 C 755.7878,55.655341 705.04053,29.487183 644,29.487183 z m 0,40.78125 c 30.77015,0 55.71875,14.83344 55.71875,33.124997 0,18.29156 -24.9486,33.09375 -55.71875,33.09375 -30.77015,0 -55.71875,-14.80219 -55.71875,-33.09375 0,-18.291557 24.9486,-33.124997 55.71875,-33.124997 z m -380,67.093747 0,915.00002 760,0 0,-915.00002 -115,0 0,89.46875 0,25.53125 -530,0 0,-25.53125 0,-89.46875 -115,0 z"
       id="path4061"
       inkscape:connector-curvature="0" />
    <rect
       style="fill:#eeeeec;fill-opacity:1;stroke:none"
       id="rect4063"
       width="530"
       height="560"
       x="379"
       y="377.36218" />
    <path
       sodipodi:type="arc"
       style="fill:#2e3436;fill-opacity:1;stroke:none"
       id="path4067"
       sodipodi:cx="364.28571"
       sodipodi:cy="475.42856"
       sodipodi:rx="27.142857"
       sodipodi:ry="37.142857"
       d="m 391.42856,475.42856 c 0,20.51343 -12.15227,37.14285 -27.14285,37.14285 -14.99059,0 -27.14286,-16.62942 -27.14286,-37.14285 0,-20.51343 12.15227,-37.14286 27.14286,-37.14286 14.99058,0 27.14285,16.62943 27.14285,37.14286 z"
       transform="matrix(1.4736842,0,0,1.0769231,-57.8421,-18.282551)" />
    <rect
       style="fill:#2e3436;fill-opacity:1;stroke:none"
       id="rect4069"
       width="277.79196"
       height="60"
       x="570.58899"
       y="463.71744" />
    <g
       id="g4071"
       transform="translate(114,192.28574)">
      <path
         sodipodi:type="arc"
         style="fill:#2e3436;fill-opacity:1;stroke:none"
         id="path4073"
         sodipodi:cx="364.28571"
         sodipodi:cy="475.42856"
         sodipodi:rx="27.142857"
         sodipodi:ry="37.142857"
         d="m 391.42856,475.42856 c 0,20.51343 -12.15227,37.14285 -27.14285,37.14285 -14.99059,0 -27.14286,-16.62942 -27.14286,-37.14285 0,-20.51343 12.15227,-37.14286 27.14286,-37.14286 14.99058,0 27.14285,16.62943 27.14285,37.14286 z"
         transform="matrix(1.4736842,0,0,1.0769231,-171.8421,-46.923538)" />
      <rect
         style="fill:#2e3436;fill-opacity:1;stroke:none"
         id="rect4075"
         width="277.79196"
         height="60"
         x="456.58896"
         y="435.07645" />
    </g>
    <g
       transform="translate(114,355.93046)"
       id="g4077">
      <path
         transform="matrix(1.4736842,0,0,1.0769231,-171.8421,-46.923538)"
         d="m 391.42856,475.42856 c 0,20.51343 -12.15227,37.14285 -27.14285,37.14285 -14.99059,0 -27.14286,-16.62942 -27.14286,-37.14285 0,-20.51343 12.15227,-37.14286 27.14286,-37.14286 14.99058,0 27.14285,16.62943 27.14285,37.14286 z"
         sodipodi:ry="37.142857"
         sodipodi:rx="27.142857"
         sodipodi:cy="475.42856"
         sodipodi:cx="364.28571"
         id="path4079"
         style="fill:#2e3436;fill-opacity:1;stroke:none"
         sodipodi:type="arc" />
      <rect
         y="435.07645"
         x="456.58896"
         height="60"
         width="277.79196"
         id="rect4081"
         style="fill:#2e3436;fill-opacity:1;stroke:none" />
    </g>
  </g>
  <g
     style="display:none"
     transform="translate(0,-28.362183)"
     id="g4202"
     inkscape:groupmode="layer"
     inkscape:label="Pad">
    <path
       inkscape:connector-curvature="0"
       id="path4204"
       d="m 662.57143,29.487183 c -58.05735,0 -106.32449,26.168158 -116.3051,60.65625 l -78.6761,0 0,112.218747 389.9624,0 0,-112.218747 -78.6761,0 c -9.98061,-34.488092 -58.24776,-60.65625 -116.3051,-60.65625 z m 0,40.78125 c 29.26634,0 52.99565,14.83344 52.99565,33.124997 0,18.29156 -23.72931,33.09375 -52.99565,33.09375 -29.26635,0 -52.99565,-14.80219 -52.99565,-33.09375 0,-18.291557 23.7293,-33.124997 52.99565,-33.124997 z m -361.42857,67.093747 0,915.00002 722.85714,0 0,-915.00002 -109.3797,0 0,89.46875 0,25.53125 -504.09774,0 0,-25.53125 0,-89.46875 -109.3797,0 z"
       style="fill:#729fcf;fill-opacity:1;stroke:none" />
    <rect
       y="377.36218"
       x="410.52255"
       height="560"
       width="504.09775"
       id="rect4206"
       style="fill:#eeeeec;fill-opacity:1;stroke:none" />
    <path
       transform="matrix(1.4736842,0,0,1.0769231,-57.8421,-18.282551)"
       d="m 391.42856,475.42856 c 0,20.51343 -12.15227,37.14285 -27.14285,37.14285 -14.99059,0 -27.14286,-16.62942 -27.14286,-37.14285 0,-20.51343 12.15227,-37.14286 27.14286,-37.14286 14.99058,0 27.14285,16.62943 27.14285,37.14286 z"
       sodipodi:ry="37.142857"
       sodipodi:rx="27.142857"
       sodipodi:cy="475.42856"
       sodipodi:cx="364.28571"
       id="path4208"
       style="fill:#2e3436;fill-opacity:1;stroke:none"
       sodipodi:type="arc" />
    <rect
       y="463.71744"
       x="592.74817"
       height="60"
       width="264.21567"
       id="rect4210"
       style="fill:#729fcf;fill-opacity:1;stroke:none" />
    <g
       style="fill:#729fcf"
       transform="matrix(0.95112782,0,0,1,158.47368,192.28574)"
       id="g4212">
      <path
         transform="matrix(1.4736842,0,0,1.0769231,-171.8421,-46.923538)"
         d="m 391.42856,475.42856 c 0,20.51343 -12.15227,37.14285 -27.14285,37.14285 -14.99059,0 -27.14286,-16.62942 -27.14286,-37.14285 0,-20.51343 12.15227,-37.14286 27.14286,-37.14286 14.99058,0 27.14285,16.62943 27.14285,37.14286 z"
         sodipodi:ry="37.142857"
         sodipodi:rx="27.142857"
         sodipodi:cy="475.42856"
         sodipodi:cx="364.28571"
         id="path4214"
         style="fill:#729fcf;fill-opacity:1;stroke:none"
         sodipodi:type="arc" />
      <rect
         y="435.07645"
         x="456.58896"
         height="60"
         width="277.79196"
         id="rect4216"
         style="fill:#729fcf;fill-opacity:1;stroke:none" />
    </g>
    <g
       style="fill:#729fcf"
       id="g4218"
       transform="matrix(0.95112782,0,0,1,158.47368,355.93046)">
      <path
         sodipodi:type="arc"
         style="fill:#729fcf;fill-opacity:1;stroke:none"
         id="path4220"
         sodipodi:cx="364.28571"
         sodipodi:cy="475.42856"
         sodipodi:rx="27.142857"
         sodipodi:ry="37.142857"
         d="m 391.42856,475.42856 c 0,20.51343 -12.15227,37.14285 -27.14285,37.14285 -14.99059,0 -27.14286,-16.62942 -27.14286,-37.14285 0,-20.51343 12.15227,-37.14286 27.14286,-37.14286 14.99058,0 27.14285,16.62943 27.14285,37.14286 z"
         transform="matrix(1.4736842,0,0,1.0769231,-171.8421,-46.923538)" />
      <rect
         style="fill:#729fcf;fill-opacity:1;stroke:none"
         id="rect4222"
         width="277.79196"
         height="60"
         x="456.58896"
         y="435.07645" />
    </g>
  </g>
  <g
     style="display:inline"
     inkscape:label="Flag"
     id="layer4"
     inkscape:groupmode="layer">
    <g
       transform="matrix(1,0,0,-1.205111,2.4322577,345.54286)"
       id="g5934">
      <path
         id="rect5928"
         d="m 1021.5678,286.73118 c 0,0 -1023.9999948,-55.52932 -1023.9999948,-55.52932 0,0 0,-246.88061 0,-246.88061 0,0 1023.9999948,18.4099118 1023.9999948,18.4099118 0,0 0,284.0000182 0,284.0000182"
         style="fill:#2e3436;fill-opacity:1;stroke:none"
         inkscape:connector-curvature="0" />
      <path
         id="rect5930"
         d="m 1021.5678,3.8740418 c 0,0 -1023.9999948,-18.5592888 -1023.9999948,-18.5592888 0,0 0,-246.880593 0,-246.880593 0,0 1023.9999948,-18.56012 1023.9999948,-18.56012 0,0 0,284.0000018 0,284.0000018"
         style="fill:#d40000;fill-opacity:1;stroke:none"
         inkscape:connector-curvature="0" />
      <path
         id="rect5932"
         d="m 1021.5678,-278.98311 c 0,0 -1023.9999948,18.41075 -1023.9999948,18.41075 0,0 0,-246.88059 0,-246.88059 0,0 1023.9999948,-55.53016 1023.9999948,-55.53016 0,0 0,284 0,284"
         style="fill:#fce94f;fill-opacity:1;stroke:none"
         inkscape:connector-curvature="0" />
    </g>
    <path
       style="fill:none;stroke:#000000;stroke-width:1.00041962px;stroke-linecap:butt;stroke-linejoin:miter;stroke-opacity:1"
       d="m -1904.357,-0.42433348 0,-889.29299652 1025.85687,-66.35384 0,1022.999487 z"
       id="path8085"
       inkscape:connector-curvature="0"
       sodipodi:nodetypes="ccccc" />
  </g>
  <g
     style="display:inline"
     inkscape:label="Clock"
     id="layer2"
     inkscape:groupmode="layer" />
</svg>
