<?xml version="1.0" encoding="UTF-8" standalone="no"?>
<!-- Created with Inkscape (http://www.inkscape.org/) -->

<svg
   xmlns:dc="http://purl.org/dc/elements/1.1/"
   xmlns:cc="http://creativecommons.org/ns#"
   xmlns:rdf="http://www.w3.org/1999/02/22-rdf-syntax-ns#"
   xmlns:svg="http://www.w3.org/2000/svg"
   xmlns="http://www.w3.org/2000/svg"
   xmlns:sodipodi="http://sodipodi.sourceforge.net/DTD/sodipodi-0.dtd"
   xmlns:inkscape="http://www.inkscape.org/namespaces/inkscape"
   width="1024"
   height="1024"
   id="svg3090"
   version="1.1"
   inkscape:version="0.92.2 (5c3e80d, 2017-08-06)"
   sodipodi:docname="Icon.svg"
   inkscape:export-filename="D:\drunk\Programmieren\Cpp\WorkTracker\icon\Icon16.png"
   inkscape:export-xdpi="1.5"
   inkscape:export-ydpi="1.5">
  <defs
     id="defs3092" />
  <sodipodi:namedview
     id="base"
     pagecolor="#ffffff"
     bordercolor="#666666"
     borderopacity="1.0"
     inkscape:pageopacity="0.0"
     inkscape:pageshadow="2"
     inkscape:zoom="0.7"
     inkscape:cx="892.0001"
     inkscape:cy="570.84798"
     inkscape:document-units="px"
     inkscape:current-layer="layer2"
     showgrid="false"
     inkscape:window-width="1278"
     inkscape:window-height="1361"
     inkscape:window-x="-7"
     inkscape:window-y="0"
     inkscape:window-maximized="0" />
  <metadata
     id="metadata3095">
    <rdf:RDF>
      <cc:Work
         rdf:about="">
        <dc:format>image/svg+xml</dc:format>
        <dc:type
           rdf:resource="http://purl.org/dc/dcmitype/StillImage" />
        <dc:title />
      </cc:Work>
    </rdf:RDF>
  </metadata>
  <g
     style="display:none"
     transform="translate(0,-28.362183)"
     id="g4059"
     inkscape:groupmode="layer"
     inkscape:label="Pad Kopie">
    <path
       inkscape:connector-curvature="0"
       id="path4061"
       d="m 644,29.487183 c -61.04053,0 -111.7878,26.168158 -122.28125,60.65625 l -82.71875,0 0,112.218747 410,0 0,-112.218747 -82.71875,0 C 755.7878,55.655341 705.04053,29.487183 644,29.487183 z m 0,40.78125 c 30.77015,0 55.71875,14.83344 55.71875,33.124997 0,18.29156 -24.9486,33.09375 -55.71875,33.09375 -30.77015,0 -55.71875,-14.80219 -55.71875,-33.09375 0,-18.291557 24.9486,-33.124997 55.71875,-33.124997 z m -380,67.093747 0,915.00002 760,0 0,-915.00002 -115,0 0,89.46875 0,25.53125 -530,0 0,-25.53125 0,-89.46875 -115,0 z"
       style="fill:#2e3436;fill-opacity:1;stroke:none" />
    <rect
       y="377.36218"
       x="379"
       height="560"
       width="530"
       id="rect4063"
       style="fill:#eeeeec;fill-opacity:1;stroke:none" />
    <path
       transform="matrix(1.4736842,0,0,1.0769231,-57.8421,-18.282551)"
       d="m 391.42856,475.42856 a 27.142857,37.142857 0 0 1 -27.14285,37.14285 27.142857,37.142857 0 0 1 -27.14286,-37.14285 27.142857,37.142857 0 0 1 27.14286,-37.14286 27.142857,37.142857 0 0 1 27.14285,37.14286 z"
       sodipodi:ry="37.142857"
       sodipodi:rx="27.142857"
       sodipodi:cy="475.42856"
       sodipodi:cx="364.28571"
       id="path4067"
       style="fill:#2e3436;fill-opacity:1;stroke:none"
       sodipodi:type="arc" />
    <rect
       y="463.71744"
       x="570.58899"
       height="60"
       width="277.79196"
       id="rect4069"
       style="fill:#2e3436;fill-opacity:1;stroke:none" />
    <g
       transform="translate(114,192.28574)"
       id="g4071">
      <path
         transform="matrix(1.4736842,0,0,1.0769231,-171.8421,-46.923538)"
         d="m 391.42856,475.42856 a 27.142857,37.142857 0 0 1 -27.14285,37.14285 27.142857,37.142857 0 0 1 -27.14286,-37.14285 27.142857,37.142857 0 0 1 27.14286,-37.14286 27.142857,37.142857 0 0 1 27.14285,37.14286 z"
         sodipodi:ry="37.142857"
         sodipodi:rx="27.142857"
         sodipodi:cy="475.42856"
         sodipodi:cx="364.28571"
         id="path4073"
         style="fill:#2e3436;fill-opacity:1;stroke:none"
         sodipodi:type="arc" />
      <rect
         y="435.07645"
         x="456.58896"
         height="60"
         width="277.79196"
         id="rect4075"
         style="fill:#2e3436;fill-opacity:1;stroke:none" />
    </g>
    <g
       id="g4077"
       transform="translate(114,355.93046)">
      <path
         sodipodi:type="arc"
         style="fill:#2e3436;fill-opacity:1;stroke:none"
         id="path4079"
         sodipodi:cx="364.28571"
         sodipodi:cy="475.42856"
         sodipodi:rx="27.142857"
         sodipodi:ry="37.142857"
         d="m 391.42856,475.42856 a 27.142857,37.142857 0 0 1 -27.14285,37.14285 27.142857,37.142857 0 0 1 -27.14286,-37.14285 27.142857,37.142857 0 0 1 27.14286,-37.14286 27.142857,37.142857 0 0 1 27.14285,37.14286 z"
         transform="matrix(1.4736842,0,0,1.0769231,-171.8421,-46.923538)" />
      <rect
         style="fill:#2e3436;fill-opacity:1;stroke:none"
         id="rect4081"
         width="277.79196"
         height="60"
         x="456.58896"
         y="435.07645" />
    </g>
  </g>
  <g
     inkscape:label="Pad"
     inkscape:groupmode="layer"
     id="g4202"
     transform="translate(0,-28.362183)"
     style="display:inline" />
  <g
     inkscape:groupmode="layer"
     id="layer4"
     inkscape:label="Flag"
     style="display:inline" />
  <g
     inkscape:groupmode="layer"
     id="layer2"
     inkscape:label="Clock"
     style="display:inline">
    <g
       id="g840"
       transform="matrix(1.3999244,0,0,1.114693,-204.7613,-58.722814)">
      <ellipse
         ry="302.51178"
         rx="310.03616"
         cy="610.31635"
         cx="515.74274"
         id="path208"
         style="fill:#eeeeec;fill-opacity:1;stroke-width:1.00022745" />
      <path
         inkscape:export-ydpi="3"
         inkscape:export-xdpi="3"
         inkscape:connector-curvature="0"
         id="path4016-0"
         d="m 512.39005,52.680706 c -101.41638,0 -183.062,15.382279 -183.062,34.480139 v 64.175725 c 0,14.9202 49.81757,27.58044 119.97842,32.39989 v 61.4714 c -172.11496,29.73386 -303.0405,179.79326 -303.0405,360.4034 0,201.98698 163.72105,365.70803 365.70801,365.70803 201.98702,0 365.76004,-163.72105 365.76004,-365.70803 0,-180.61014 -130.92551,-330.66953 -303.04047,-360.40339 v -61.41939 c 70.56655,-4.77952 120.75853,-17.47708 120.75853,-32.4519 V 87.160845 c 0,-19.09786 -81.64568,-34.480139 -183.06203,-34.480139 z m -0.41607,307.356964 c 135.61986,0 245.57361,109.95372 245.57361,245.57359 0,135.61982 -109.95375,245.52156 -245.5736,245.52156 -135.61982,0 -245.52152,-109.90174 -245.52152,-245.52156 0,-135.61987 109.9017,-245.57358 245.52151,-245.57359 z"
         style="display:inline;fill:#0066cc;fill-opacity:1;stroke:none;stroke-width:1.94191217" />
      <path
         inkscape:export-ydpi="3"
         inkscape:export-xdpi="3"
         sodipodi:end="6.2831853"
         sodipodi:start="4.712389"
         sodipodi:type="arc"
         style="display:inline;fill:#cc0000;fill-opacity:1;stroke:none;stroke-width:0.58851504"
         id="path3923-9-2"
         sodipodi:cx="513.57684"
         sodipodi:cy="605.52972"
         sodipodi:rx="181.99904"
         sodipodi:ry="190.02913"
         d="m 513.57685,415.5006 a 181.99904,190.02913 0 0 1 181.99903,190.02912 l -181.99904,0 z" />
    </g>
    <rect
       style="display:inline;fill:#000000;fill-opacity:0;stroke-width:2.49099207"
       y="9.1428537"
       x="1196.5715"
       height="1024"
       width="1024"
       id="rect4479-0-3"
       inkscape:export-xdpi="24"
       inkscape:export-ydpi="24" />
  </g>
</svg>
