<?xml version="1.0" encoding="UTF-8" standalone="no"?>
<!-- Created with Inkscape (http://www.inkscape.org/) -->

<svg
   xmlns:dc="http://purl.org/dc/elements/1.1/"
   xmlns:cc="http://creativecommons.org/ns#"
   xmlns:rdf="http://www.w3.org/1999/02/22-rdf-syntax-ns#"
   xmlns:svg="http://www.w3.org/2000/svg"
   xmlns="http://www.w3.org/2000/svg"
   xmlns:sodipodi="http://sodipodi.sourceforge.net/DTD/sodipodi-0.dtd"
   xmlns:inkscape="http://www.inkscape.org/namespaces/inkscape"
   width="1024"
   height="1024"
   id="svg3090"
   version="1.1"
   inkscape:version="0.48.4 r"
   sodipodi:docname="Icon.svg"
   inkscape:export-filename="D:\RobertLohr\Programmieren\Cpp\WorkTracker\icon\Icon256.png"
   inkscape:export-xdpi="22.524746"
   inkscape:export-ydpi="22.524746">
  <defs
     id="defs3092" />
  <sodipodi:namedview
     id="base"
     pagecolor="#ffffff"
     bordercolor="#666666"
     borderopacity="1.0"
     inkscape:pageopacity="0.0"
     inkscape:pageshadow="2"
     inkscape:zoom="0.49497475"
     inkscape:cx="109.08214"
     inkscape:cy="461.18118"
     inkscape:document-units="px"
     inkscape:current-layer="layer2"
     showgrid="false"
     inkscape:window-width="1856"
     inkscape:window-height="1057"
     inkscape:window-x="56"
     inkscape:window-y="-8"
     inkscape:window-maximized="1" />
  <metadata
     id="metadata3095">
    <rdf:RDF>
      <cc:Work
         rdf:about="">
        <dc:format>image/svg+xml</dc:format>
        <dc:type
           rdf:resource="http://purl.org/dc/dcmitype/StillImage" />
        <dc:title></dc:title>
      </cc:Work>
    </rdf:RDF>
  </metadata>
  <g
     style="display:none"
     transform="translate(0,-28.362183)"
     id="g4059"
     inkscape:groupmode="layer"
     inkscape:label="Pad Kopie">
    <path
       inkscape:connector-curvature="0"
       id="path4061"
       d="m 644,29.487183 c -61.04053,0 -111.7878,26.168158 -122.28125,60.65625 l -82.71875,0 0,112.218747 410,0 0,-112.218747 -82.71875,0 C 755.7878,55.655341 705.04053,29.487183 644,29.487183 z m 0,40.78125 c 30.77015,0 55.71875,14.83344 55.71875,33.124997 0,18.29156 -24.9486,33.09375 -55.71875,33.09375 -30.77015,0 -55.71875,-14.80219 -55.71875,-33.09375 0,-18.291557 24.9486,-33.124997 55.71875,-33.124997 z m -380,67.093747 0,915.00002 760,0 0,-915.00002 -115,0 0,89.46875 0,25.53125 -530,0 0,-25.53125 0,-89.46875 -115,0 z"
       style="fill:#2e3436;fill-opacity:1;stroke:none" />
    <rect
       y="377.36218"
       x="379"
       height="560"
       width="530"
       id="rect4063"
       style="fill:#eeeeec;fill-opacity:1;stroke:none" />
    <path
       transform="matrix(1.4736842,0,0,1.0769231,-57.8421,-18.282551)"
       d="m 391.42856,475.42856 c 0,20.51343 -12.15227,37.14285 -27.14285,37.14285 -14.99059,0 -27.14286,-16.62942 -27.14286,-37.14285 0,-20.51343 12.15227,-37.14286 27.14286,-37.14286 14.99058,0 27.14285,16.62943 27.14285,37.14286 z"
       sodipodi:ry="37.142857"
       sodipodi:rx="27.142857"
       sodipodi:cy="475.42856"
       sodipodi:cx="364.28571"
       id="path4067"
       style="fill:#2e3436;fill-opacity:1;stroke:none"
       sodipodi:type="arc" />
    <rect
       y="463.71744"
       x="570.58899"
       height="60"
       width="277.79196"
       id="rect4069"
       style="fill:#2e3436;fill-opacity:1;stroke:none" />
    <g
       transform="translate(114,192.28574)"
       id="g4071">
      <path
         transform="matrix(1.4736842,0,0,1.0769231,-171.8421,-46.923538)"
         d="m 391.42856,475.42856 c 0,20.51343 -12.15227,37.14285 -27.14285,37.14285 -14.99059,0 -27.14286,-16.62942 -27.14286,-37.14285 0,-20.51343 12.15227,-37.14286 27.14286,-37.14286 14.99058,0 27.14285,16.62943 27.14285,37.14286 z"
         sodipodi:ry="37.142857"
         sodipodi:rx="27.142857"
         sodipodi:cy="475.42856"
         sodipodi:cx="364.28571"
         id="path4073"
         style="fill:#2e3436;fill-opacity:1;stroke:none"
         sodipodi:type="arc" />
      <rect
         y="435.07645"
         x="456.58896"
         height="60"
         width="277.79196"
         id="rect4075"
         style="fill:#2e3436;fill-opacity:1;stroke:none" />
    </g>
    <g
       id="g4077"
       transform="translate(114,355.93046)">
      <path
         sodipodi:type="arc"
         style="fill:#2e3436;fill-opacity:1;stroke:none"
         id="path4079"
         sodipodi:cx="364.28571"
         sodipodi:cy="475.42856"
         sodipodi:rx="27.142857"
         sodipodi:ry="37.142857"
         d="m 391.42856,475.42856 c 0,20.51343 -12.15227,37.14285 -27.14285,37.14285 -14.99059,0 -27.14286,-16.62942 -27.14286,-37.14285 0,-20.51343 12.15227,-37.14286 27.14286,-37.14286 14.99058,0 27.14285,16.62943 27.14285,37.14286 z"
         transform="matrix(1.4736842,0,0,1.0769231,-171.8421,-46.923538)" />
      <rect
         style="fill:#2e3436;fill-opacity:1;stroke:none"
         id="rect4081"
         width="277.79196"
         height="60"
         x="456.58896"
         y="435.07645" />
    </g>
  </g>
  <g
     inkscape:label="Pad"
     inkscape:groupmode="layer"
     id="g4202"
     transform="translate(0,-28.362183)"
     style="display:inline">
    <path
       style="fill:#204a87;fill-opacity:1;stroke:none"
       d="m 662.57143,29.487183 c -58.05735,0 -106.32449,26.168158 -116.3051,60.65625 l -78.6761,0 0,112.218747 389.9624,0 0,-112.218747 -78.6761,0 c -9.98061,-34.488092 -58.24776,-60.65625 -116.3051,-60.65625 z m 0,40.78125 c 29.26634,0 52.99565,14.83344 52.99565,33.124997 0,18.29156 -23.72931,33.09375 -52.99565,33.09375 -29.26635,0 -52.99565,-14.80219 -52.99565,-33.09375 0,-18.291557 23.7293,-33.124997 52.99565,-33.124997 z m -361.42857,67.093747 0,915.00002 722.85714,0 0,-915.00002 -109.3797,0 0,89.46875 0,25.53125 -504.09774,0 0,-25.53125 0,-89.46875 -109.3797,0 z"
       id="path4204"
       inkscape:connector-curvature="0" />
    <rect
       style="fill:#eeeeec;fill-opacity:1;stroke:none"
       id="rect4206"
       width="504.09775"
       height="560"
       x="410.52255"
       y="377.36218" />
    <g
       id="g4212"
       transform="matrix(0.95112782,0,0,1,158.47368,192.28574)"
       style="fill:#204a87">
      <path
         sodipodi:type="arc"
         style="fill:#204a87;fill-opacity:1;stroke:none"
         id="path4214"
         sodipodi:cx="364.28571"
         sodipodi:cy="475.42856"
         sodipodi:rx="27.142857"
         sodipodi:ry="37.142857"
         d="m 391.42856,475.42856 c 0,20.51343 -12.15227,37.14285 -27.14285,37.14285 -14.99059,0 -27.14286,-16.62942 -27.14286,-37.14285 0,-20.51343 12.15227,-37.14286 27.14286,-37.14286 14.99058,0 27.14285,16.62943 27.14285,37.14286 z"
         transform="matrix(1.4736842,0,0,1.0769231,-171.8421,-46.923538)" />
      <rect
         style="fill:#204a87;fill-opacity:1;stroke:none"
         id="rect4216"
         width="277.79196"
         height="60"
         x="456.58896"
         y="435.07645" />
    </g>
    <g
       transform="matrix(0.95112782,0,0,1,158.47368,355.93046)"
       id="g4218"
       style="fill:#204a87">
      <path
         transform="matrix(1.4736842,0,0,1.0769231,-171.8421,-46.923538)"
         d="m 391.42856,475.42856 c 0,20.51343 -12.15227,37.14285 -27.14285,37.14285 -14.99059,0 -27.14286,-16.62942 -27.14286,-37.14285 0,-20.51343 12.15227,-37.14286 27.14286,-37.14286 14.99058,0 27.14285,16.62943 27.14285,37.14286 z"
         sodipodi:ry="37.142857"
         sodipodi:rx="27.142857"
         sodipodi:cy="475.42856"
         sodipodi:cx="364.28571"
         id="path4220"
         style="fill:#204a87;fill-opacity:1;stroke:none"
         sodipodi:type="arc" />
      <rect
         y="435.07645"
         x="456.58896"
         height="60"
         width="277.79196"
         id="rect4222"
         style="fill:#204a87;fill-opacity:1;stroke:none" />
    </g>
    <g
       style="fill:#204a87"
       transform="matrix(0.95112782,0,0,1,158.47368,28.640724)"
       id="g5458">
      <path
         transform="matrix(1.4736842,0,0,1.0769231,-171.8421,-46.923538)"
         d="m 391.42856,475.42856 c 0,20.51343 -12.15227,37.14285 -27.14285,37.14285 -14.99059,0 -27.14286,-16.62942 -27.14286,-37.14285 0,-20.51343 12.15227,-37.14286 27.14286,-37.14286 14.99058,0 27.14285,16.62943 27.14285,37.14286 z"
         sodipodi:ry="37.142857"
         sodipodi:rx="27.142857"
         sodipodi:cy="475.42856"
         sodipodi:cx="364.28571"
         id="path5460"
         style="fill:#204a87;fill-opacity:1;stroke:none"
         sodipodi:type="arc" />
      <rect
         y="435.07645"
         x="456.58896"
         height="60"
         width="277.79196"
         id="rect5462"
         style="fill:#204a87;fill-opacity:1;stroke:none" />
    </g>
  </g>
  <g
     inkscape:groupmode="layer"
     id="layer4"
     inkscape:label="Flag"
     style="display:inline">
    <path
       style="fill:#0083d7;fill-opacity:1;stroke:none;display:inline"
       d="m 0,340.85728 651.42858,-42.57158 0,651.4286 L 0,907.14328 z"
       id="rect4224"
       inkscape:connector-curvature="0"
       sodipodi:nodetypes="ccccc" />
  </g>
  <g
     inkscape:groupmode="layer"
     id="layer2"
     inkscape:label="Clock"
     style="display:inline">
    <path
       style="fill:#eeeeec;fill-opacity:1;stroke:none"
       d="m 325.91514,387.47062 c -52.225,0 -94.26895,7.9212 -94.26895,17.75577 l 0,33.0477 c 0,7.68326 25.65389,14.20271 61.78366,16.68453 l 0,31.65509 c -88.6317,15.31163 -156.05262,92.58568 -156.05262,185.59201 0,104.01448 84.30918,188.32366 188.32366,188.32366 104.01449,0 188.35045,-84.30918 188.35045,-188.32366 0,-93.00633 -67.42092,-170.28038 -156.05262,-185.59201 l 0,-31.62831 c 36.3387,-2.46125 62.18538,-8.99993 62.18538,-16.71131 l 0,-33.0477 c 0,-9.83457 -42.04396,-17.75577 -94.26896,-17.75577 z m -0.21425,158.27543 c 69.8383,0 126.45968,56.62137 126.45968,126.45967 0,69.83829 -56.62138,126.43288 -126.45968,126.43288 -69.83829,0 -126.43288,-56.59459 -126.43288,-126.43288 0,-69.8383 56.59459,-126.45967 126.43288,-126.45967 z"
       id="path4016"
       inkscape:connector-curvature="0" />
    <path
       transform="matrix(0.2965872,0,0,0.30967314,291.52902,635.00299)"
       d="M 118.00001,-196 A 316,316 0 0 1 434,120 l -316,0 z"
       sodipodi:ry="316"
       sodipodi:rx="316"
       sodipodi:cy="120"
       sodipodi:cx="118"
       id="path3923-9"
       style="fill:#cc0000;fill-opacity:1;stroke:none;display:inline"
       sodipodi:type="arc"
       sodipodi:start="4.712389"
       sodipodi:end="6.2831853" />
  </g>
</svg>
