<?xml version="1.0" encoding="UTF-8" standalone="no"?>
<!-- Created with Inkscape (http://www.inkscape.org/) -->

<svg
   xmlns:dc="http://purl.org/dc/elements/1.1/"
   xmlns:cc="http://creativecommons.org/ns#"
   xmlns:rdf="http://www.w3.org/1999/02/22-rdf-syntax-ns#"
   xmlns:svg="http://www.w3.org/2000/svg"
   xmlns="http://www.w3.org/2000/svg"
   xmlns:sodipodi="http://sodipodi.sourceforge.net/DTD/sodipodi-0.dtd"
   xmlns:inkscape="http://www.inkscape.org/namespaces/inkscape"
   width="1024"
   height="1024"
   id="svg3090"
   version="1.1"
   inkscape:version="0.48.4 r"
   sodipodi:docname="Start-Task.svg"
   inkscape:export-filename="D:\RobertLohr\Programmieren\Cpp\WorkTracker\icon\Icon256.png"
   inkscape:export-xdpi="22.524746"
   inkscape:export-ydpi="22.524746">
  <defs
     id="defs3092" />
  <sodipodi:namedview
     id="base"
     pagecolor="#ffffff"
     bordercolor="#666666"
     borderopacity="1.0"
     inkscape:pageopacity="0.0"
     inkscape:pageshadow="2"
     inkscape:zoom="0.7"
     inkscape:cx="220.47966"
     inkscape:cy="461.18118"
     inkscape:document-units="px"
     inkscape:current-layer="layer2"
     showgrid="false"
     inkscape:window-width="1856"
     inkscape:window-height="1057"
     inkscape:window-x="56"
     inkscape:window-y="-8"
     inkscape:window-maximized="1" />
  <metadata
     id="metadata3095">
    <rdf:RDF>
      <cc:Work
         rdf:about="">
        <dc:format>image/svg+xml</dc:format>
        <dc:type
           rdf:resource="http://purl.org/dc/dcmitype/StillImage" />
        <dc:title />
      </cc:Work>
    </rdf:RDF>
  </metadata>
  <g
     inkscape:groupmode="layer"
     id="layer4"
     inkscape:label="Flag"
     style="display:inline">
    <path
       style="fill:#0066cc;fill-opacity:1;stroke:none;display:inline"
       d="M 0,66.919529 1024,0 1024,1024 0,957.08135 z"
       id="rect4224"
       inkscape:connector-curvature="0"
       sodipodi:nodetypes="ccccc" />
  </g>
  <g
     inkscape:groupmode="layer"
     id="layer2"
     inkscape:label="Clock"
     style="display:inline">
    <path
       inkscape:connector-curvature="0"
       style="fill:#eeeeec;fill-opacity:1;stroke:none;display:inline"
       d="m 411.31077,140.25 c -81.94718,0 -147.90626,12.44892 -147.90626,27.90625 l 0,51.9375 c 0,12.07605 40.24564,22.31799 96.93751,26.21875 l 0,49.75 C 221.26845,320.12833 115.467,441.59994 115.467,587.78125 c 0,163.48319 132.28905,295.96875 295.50002,295.96875 68.89499,0 132.30275,-23.60124 182.56251,-63.1875 -46.3143,-4.18622 -89.56936,-18.96634 -127.34376,-41.875 -17.52458,5.07213 -36.06298,7.8125 -55.21875,7.8125 -109.5845,0 -198.37501,-88.95147 -198.37501,-198.71875 0,-88.23429 57.3831,-163.04394 136.8125,-189 24.26946,-52.80745 63.48815,-97.31546 112.25001,-128.09375 l 0,-24.34375 c 57.0197,-3.86843 97.56251,-14.12975 97.56251,-26.25 l 0,-51.9375 c 0,-15.45733 -65.95909,-27.90625 -147.90626,-27.90625 z"
       id="path4016" />
    <path
       style="fill:#eeeeec;fill-opacity:1;stroke:none;display:inline"
       d="m 618.59647,259.7924 0,205.65993 52.87501,0 0,-205.65993 -52.87501,0 z m -210.62501,110.86489 -26.4375,41.74173 195.34376,102.82996 26.4375,-41.74173 -195.34376,-102.82996 z m 474.12504,0 -195.34377,102.82996 26.4375,41.74173 L 908.534,412.39902 882.0965,370.65729 z m -305.21878,160.67004 -195.34376,102.82996 26.4375,41.74173 195.34376,-102.82997 -26.4375,-41.74172 z m 136.31251,0 -26.4375,41.74172 L 882.0965,675.89902 908.534,634.15729 713.19023,531.32733 z m -94.59376,49.80514 0,205.65993 52.87501,0 0,-205.65993 -52.87501,0 z"
       id="rect3086"
       inkscape:connector-curvature="0" />
  </g>
</svg>
