<?xml version="1.0" encoding="UTF-8" standalone="no"?>
<!-- Created with Inkscape (http://www.inkscape.org/) -->

<svg
   xmlns:dc="http://purl.org/dc/elements/1.1/"
   xmlns:cc="http://creativecommons.org/ns#"
   xmlns:rdf="http://www.w3.org/1999/02/22-rdf-syntax-ns#"
   xmlns:svg="http://www.w3.org/2000/svg"
   xmlns="http://www.w3.org/2000/svg"
   xmlns:sodipodi="http://sodipodi.sourceforge.net/DTD/sodipodi-0.dtd"
   xmlns:inkscape="http://www.inkscape.org/namespaces/inkscape"
   width="1024"
   height="1024"
   id="svg3090"
   version="1.1"
   inkscape:version="0.48.4 r"
   sodipodi:docname="Start-Day.svg"
   inkscape:export-filename="D:\RobertLohr\Programmieren\Cpp\WorkTracker\icon\Icon256.png"
   inkscape:export-xdpi="22.524746"
   inkscape:export-ydpi="22.524746">
  <defs
     id="defs3092" />
  <sodipodi:namedview
     id="base"
     pagecolor="#ffffff"
     bordercolor="#666666"
     borderopacity="1.0"
     inkscape:pageopacity="0.0"
     inkscape:pageshadow="2"
     inkscape:zoom="0.7"
     inkscape:cx="336.02256"
     inkscape:cy="401.41558"
     inkscape:document-units="px"
     inkscape:current-layer="layer2"
     showgrid="false"
     inkscape:window-width="1856"
     inkscape:window-height="1057"
     inkscape:window-x="56"
     inkscape:window-y="-8"
     inkscape:window-maximized="1" />
  <metadata
     id="metadata3095">
    <rdf:RDF>
      <cc:Work
         rdf:about="">
        <dc:format>image/svg+xml</dc:format>
        <dc:type
           rdf:resource="http://purl.org/dc/dcmitype/StillImage" />
        <dc:title />
      </cc:Work>
    </rdf:RDF>
  </metadata>
  <g
     inkscape:groupmode="layer"
     id="layer4"
     inkscape:label="Flag"
     style="display:inline">
    <path
       style="fill:#0066cc;fill-opacity:1;stroke:none;display:inline"
       d="M 0,66.919529 1024,0 1024,1024 0,957.08135 z"
       id="rect4224"
       inkscape:connector-curvature="0"
       sodipodi:nodetypes="ccccc" />
  </g>
  <g
     inkscape:groupmode="layer"
     id="layer2"
     inkscape:label="Clock"
     style="display:inline">
    <path
       style="fill:#eeeeec;fill-opacity:1;stroke:none;display:inline"
       d="m 378.22222,140.25 c -42.20659,0 -77.32174,19.00948 -84.57746,44.07868 l -57.19671,0 0,81.57054 234.31297,0 c 15.57204,-9.02498 32.01802,-16.74562 49.20416,-22.94464 l 0,-58.6259 -57.19672,0 C 455.51275,159.25948 420.42882,140.25 378.22222,140.25 z m 0,29.62512 c 21.27608,0 38.52661,10.77243 38.52661,24.06846 0,13.29604 -17.25053,24.06846 -38.52661,24.06846 -21.27608,0 -38.52661,-10.77242 -38.52661,-24.06846 0,-13.29603 17.25053,-24.06846 38.52661,-24.06846 z m -262.75522,48.76126 0,665.11362 525.47923,0 0,-59.99945 c -5.62147,0.30658 -11.25397,0.49947 -16.95296,0.49947 -167.50183,0 -303.31119,-134.17359 -303.31119,-299.6851 0,-88.19678 38.57079,-167.48947 99.93815,-222.32888 l -225.63356,0 0,-18.54302 0,-65.05664 -79.51967,0 z m 445.99078,0 0,12.64297 c 20.18028,-4.17987 41.09808,-6.39953 62.53549,-6.39953 5.69889,0 11.33159,0.16168 16.95296,0.46826 l 0,-6.7117 -79.48845,0 z"
       id="path4204"
       inkscape:connector-curvature="0" />
    <rect
       style="fill:#0066cc;fill-opacity:1;stroke:none;display:inline"
       id="rect4206"
       width="366.81094"
       height="407.48868"
       x="195.04813"
       y="392.58945" />
    <path
       style="fill:#eeeeec;fill-opacity:1;stroke:none"
       d="m 264.24825,448.15625 c -15.28936,0 -27.6875,13.01876 -27.6875,29.09375 0,16.07499 12.39814,29.125 27.6875,29.125 15.28936,0 27.6875,-13.05001 27.6875,-29.125 0,-16.07499 -12.39814,-29.09375 -27.6875,-29.09375 z m 0,119.0625 c -15.28936,0 -27.6875,13.05001 -27.6875,29.125 0,16.07499 12.39814,29.09375 27.6875,29.09375 15.28936,0 27.6875,-13.01876 27.6875,-29.09375 0,-16.07499 -12.39814,-29.125 -27.6875,-29.125 z m 0,119.09375 c -15.28936,0 -27.6875,13.01876 -27.6875,29.09375 0,16.07499 12.39814,29.125 27.6875,29.125 15.28936,0 27.6875,-13.05001 27.6875,-29.125 0,-16.07499 -12.39814,-29.09375 -27.6875,-29.09375 z m 63.40625,7.28125 0,43.65625 83.125,0 c -13.62684,-13.34725 -25.99124,-27.9675 -36.875,-43.65625 l -46.25,0 z"
       id="path4214"
       inkscape:connector-curvature="0" />
    <path
       style="fill:#eeeeec;fill-opacity:1;stroke:none;display:inline"
       d="m 618.86634,261.48197 0,205.44406 52.82579,0 0,-205.44406 -52.82579,0 z m -210.42897,110.74852 -26.4129,41.69792 195.16194,102.72202 26.4129,-41.69792 -195.16194,-102.72202 z m 473.68374,0 -195.16196,102.72202 26.4129,41.69792 L 908.534,413.92841 882.12111,372.23049 z m -304.9347,160.50139 -195.16194,102.72202 26.4129,41.69792 195.16194,-102.72203 -26.4129,-41.69791 z m 136.18564,0 -26.4129,41.69791 L 882.12111,677.15182 908.534,635.4539 713.37205,532.73188 z m -94.50571,49.75286 0,205.44406 52.82579,0 0,-205.44406 -52.82579,0 z"
       id="rect3086-2"
       inkscape:connector-curvature="0" />
  </g>
</svg>
