<?xml version="1.0" encoding="UTF-8" standalone="no"?>
<!-- Created with Inkscape (http://www.inkscape.org/) -->

<svg
   xmlns:dc="http://purl.org/dc/elements/1.1/"
   xmlns:cc="http://creativecommons.org/ns#"
   xmlns:rdf="http://www.w3.org/1999/02/22-rdf-syntax-ns#"
   xmlns:svg="http://www.w3.org/2000/svg"
   xmlns="http://www.w3.org/2000/svg"
   xmlns:sodipodi="http://sodipodi.sourceforge.net/DTD/sodipodi-0.dtd"
   xmlns:inkscape="http://www.inkscape.org/namespaces/inkscape"
   width="921"
   height="1024"
   id="svg2"
   version="1.1"
   inkscape:version="0.48.4 r"
   sodipodi:docname="Icon-Stop-Day.svg"
   inkscape:export-filename="D:\RobertLohr\Programmieren\Cpp\WorkTracker\icon48.png"
   inkscape:export-xdpi="4.2199998"
   inkscape:export-ydpi="4.2199998"
   inkscape:label="Pad">
  <defs
     id="defs4">
    <inkscape:perspective
       sodipodi:type="inkscape:persp3d"
       inkscape:vp_x="0 : 512 : 1"
       inkscape:vp_y="0 : 1000 : 0"
       inkscape:vp_z="1024 : 512 : 1"
       inkscape:persp3d-origin="512 : 341.33333 : 1"
       id="perspective3967" />
    <linearGradient
       id="linearGradient3847">
      <stop
         style="stop-color:#c07305;stop-opacity:1;"
         offset="0"
         id="stop3849" />
      <stop
         style="stop-color:#d4b363;stop-opacity:0;"
         offset="1"
         id="stop3851" />
    </linearGradient>
    <linearGradient
       id="linearGradient3796">
      <stop
         style="stop-color:#808080;stop-opacity:1;"
         offset="0"
         id="stop3798" />
      <stop
         style="stop-color:#dbdbdb;stop-opacity:1;"
         offset="1"
         id="stop3800" />
    </linearGradient>
    <linearGradient
       id="linearGradient3755">
      <stop
         style="stop-color:#979797;stop-opacity:1;"
         offset="0"
         id="stop3757" />
      <stop
         style="stop-color:#e6e6e6;stop-opacity:0;"
         offset="1"
         id="stop3759" />
    </linearGradient>
  </defs>
  <sodipodi:namedview
     id="base"
     pagecolor="#ffffff"
     bordercolor="#666666"
     borderopacity="1.0"
     inkscape:pageopacity="0.0"
     inkscape:pageshadow="2"
     inkscape:zoom="0.7071068"
     inkscape:cx="708.67841"
     inkscape:cy="502.09613"
     inkscape:document-units="px"
     inkscape:current-layer="layer1"
     showgrid="false"
     inkscape:window-width="1856"
     inkscape:window-height="1057"
     inkscape:window-x="56"
     inkscape:window-y="-8"
     inkscape:window-maximized="1"
     showguides="true"
     inkscape:guide-bbox="true" />
  <metadata
     id="metadata7">
    <rdf:RDF>
      <cc:Work
         rdf:about="">
        <dc:format>image/svg+xml</dc:format>
        <dc:type
           rdf:resource="http://purl.org/dc/dcmitype/StillImage" />
        <dc:title />
      </cc:Work>
    </rdf:RDF>
  </metadata>
  <g
     inkscape:groupmode="layer"
     id="layer1"
     inkscape:label="Pad"
     style="display:inline">
    <path
       style="fill:#2e3436;fill-opacity:1;stroke:none"
       d="m -0.15625,281.78125 0,155.15625 c 29.532437,2.27936 57.956535,8.32514 84.75,17.6875 l 0,-89.1875 251.75,0 C 336.12259,360.31591 336,355.17672 336,350 c 0,-23.35114 2.28974,-46.15613 6.625,-68.21875 l -342.78125,0 z M 271.0625,621.1875 c 0.95995,2.04483 1.89671,4.11965 2.8125,6.1875 -0.91524,-2.06597 -1.85317,-4.14451 -2.8125,-6.1875 z m 478.90625,69.59375 C 727.37208,695.50561 703.98024,698 680,698 c -4.95108,0 -9.88112,-0.10299 -14.78125,-0.3125 l 0,241 -429.125,0 c -25.79435,33.63485 -58.33185,62.1515 -95.71875,83.6563 l 609.59375,0 0,-331.56255 z m -455.5625,1.875 c 0.30905,1.58702 0.59067,3.15469 0.875,4.75 -0.28389,-1.59278 -0.56646,-3.16548 -0.875,-4.75 z m 1.125,6.1875 c 0.28169,1.62569 0.55667,3.27222 0.8125,4.90625 -0.25563,-1.63243 -0.53106,-3.28215 -0.8125,-4.90625 z m 3.15625,23.9375 c 0.1445,1.55691 0.28528,3.09291 0.40625,4.65625 -0.12066,-1.55911 -0.26219,-3.10355 -0.40625,-4.65625 z M 299.25,729.5 c 0.10089,1.42806 0.20018,2.87929 0.28125,4.3125 -0.0812,-1.43588 -0.18026,-2.88181 -0.28125,-4.3125 z m -2.21875,64.78125 c -0.18768,1.32845 -0.38897,2.64563 -0.59375,3.96875 0.20482,-1.32363 0.40603,-2.6398 0.59375,-3.96875 z m -0.875,5.75 c -0.21881,1.3603 -0.45075,2.73926 -0.6875,4.09375 0.23715,-1.3566 0.46836,-2.73132 0.6875,-4.09375 z"
       id="rect3978"
       inkscape:connector-curvature="0" />
    <path
       style="fill:#2e3436;stroke:#2e3436;stroke-width:31.81780815;stroke-linejoin:round;stroke-miterlimit:4;stroke-opacity:1;stroke-dasharray:none"
       d="m 16.629348,132.7231 0,179.02255 305.369152,0 c 0.0304,-0.2938 0.0581,-0.58505 0.0892,-0.87864 0.0166,-0.15725 0.0426,-0.31351 0.0594,-0.4707 0.21182,-1.97914 0.4409,-3.93046 0.68355,-5.89942 0.11627,-0.94342 0.23333,-1.88316 0.35664,-2.8242 0.15055,-1.14915 0.31452,-2.30626 0.47551,-3.45179 0.0425,-0.30246 0.0756,-0.60781 0.11888,-0.91002 0.001,-0.0102 -10e-4,-0.0212 0,-0.0314 0.11094,-0.7747 0.24094,-1.54909 0.35664,-2.32212 0.13173,-0.88058 0.27818,-1.75753 0.41607,-2.63591 0.17371,-1.10629 0.32181,-2.22353 0.50523,-3.32627 0.13751,-0.82669 0.27314,-1.65435 0.41608,-2.47902 0.12341,-0.71204 0.2589,-1.42332 0.38635,-2.13383 0.25606,-1.42744 0.53017,-2.84648 0.80243,-4.26768 0.26814,-1.39963 0.51869,-2.81142 0.80243,-4.20491 0.005,-0.0223 0.0252,-0.0405 0.0297,-0.0628 0.47369,-2.32405 0.96924,-4.62843 1.48598,-6.93497 0.4274,-1.90768 0.88084,-3.81576 1.33739,-5.71114 0.0279,-0.11591 0.0611,-0.22932 0.0892,-0.34518 0.11886,-0.49137 0.23582,-0.98434 0.35663,-1.47486 0.43569,-1.76887 0.87649,-3.54543 1.33739,-5.30321 0.0903,-0.34454 0.17617,-0.69143 0.26747,-1.03554 l -248.634387,0 0,-122.319 -67.106915,0 z"
       id="rect3851"
       inkscape:connector-curvature="0" />
    <path
       style="fill:#2e3436;fill-opacity:1;stroke:none"
       d="m 161.8125,118.25 0,58.84375 219.5625,0 c 11.969,-21.10859 26.10888,-40.81358 42.03125,-58.84375 l -261.59375,0 z"
       id="rect3868"
       inkscape:connector-curvature="0" />
    <path
       style="fill:#2e3436;fill-opacity:1;stroke:none"
       d="m 196.75,88.1875 c -19.34317,0 -34.9375,3.855745 -34.9375,8.625 l 0,63.65625 c 0,4.76925 15.59433,8.59375 34.9375,8.59375 l 189.375,0 c 1.14289,-1.89556 2.29126,-3.78477 3.46875,-5.65625 2.35412,-3.74159 4.7915,-7.41986 7.28125,-11.0625 1.2167,-1.7801 2.43905,-3.55668 3.6875,-5.3125 0.15103,-0.21245 0.31726,-0.41291 0.46875,-0.625 1.15618,-1.61839 2.31714,-3.24645 3.5,-4.84375 1.31073,-1.77008 2.65696,-3.53753 4,-5.28125 1.15339,-1.49716 2.32308,-2.99131 3.5,-4.46875 0.26387,-0.33129 0.5162,-0.66972 0.78125,-1 2.67858,-3.33763 5.42208,-6.61012 8.21875,-9.84375 2.8236,-3.26475 5.71566,-6.46969 8.65625,-9.625 0.0855,-0.0917 0.16441,-0.18961 0.25,-0.28125 0.93221,-0.99811 1.8688,-1.98185 2.8125,-2.96875 0.91642,-0.95843 1.82282,-1.92724 2.75,-2.875 0.82974,-0.84808 1.66173,-1.69179 2.5,-2.53125 0.82737,-0.82862 1.66437,-1.64859 2.5,-2.46875 1.06705,-1.047226 2.13839,-2.091716 3.21875,-3.125 3.15595,-3.018439 6.35788,-5.977943 9.625,-8.875 0.0168,-0.01492 0.0457,-0.01634 0.0625,-0.03125 l -256.65625,0 z"
       id="rect3872"
       inkscape:connector-curvature="0" />
    <path
       style="fill:#2e3436;fill-opacity:1;stroke:none"
       d="m -0.15625,281.78125 0,740.56255 609.59375,0 c -37.3869,-21.5048 -69.9244,-50.02145 -95.71875,-83.6563 l -429.125,0 0,-573.25 251.75,0 C 336.12259,360.31591 336,355.17672 336,350 c 0,-23.35114 2.28974,-46.15613 6.625,-68.21875 l -342.78125,0 z m 455.59375,410.875 c -0.30905,1.58702 -0.62192,3.15469 -0.90625,4.75 0.28389,-1.59278 0.59771,-3.16548 0.90625,-4.75 z m -1.15625,6.1875 c -0.28169,1.62569 -0.55667,3.27222 -0.8125,4.90625 0.25563,-1.63243 0.53106,-3.28215 0.8125,-4.90625 z m -3.15625,23.9375 c -0.1445,1.55691 -0.28528,3.09291 -0.40625,4.65625 0.12066,-1.55911 0.26219,-3.10355 0.40625,-4.65625 z M 450.5625,729.5 c -0.10089,1.42806 -0.20018,2.87929 -0.28125,4.3125 0.0812,-1.43588 0.18026,-2.88181 0.28125,-4.3125 z m 2.21875,64.78125 c 0.18768,1.32845 0.38897,2.64563 0.59375,3.96875 -0.20482,-1.32363 -0.40603,-2.6398 -0.59375,-3.96875 z m 0.875,5.75 c 0.21881,1.3603 0.45075,2.73926 0.6875,4.09375 -0.23715,-1.3566 -0.46836,-2.73132 -0.6875,-4.09375 z"
       id="path3101"
       inkscape:connector-curvature="0" />
    <path
       style="fill:#2e3436;fill-opacity:1;stroke:none"
       d="m 372.9375,0.25 c -40.66141,1.14674 -73.28125,38.20735 -73.28125,83.78125 0,46.2973 33.65895,83.84375 75.21875,83.84375 4.31268,0 8.54072,-0.4117 12.65625,-1.1875 17.19998,-28.02433 38.2298,-53.3752 62.34375,-75.34375 0.18976,-2.412581 0.28125,-4.845979 0.28125,-7.3125 C 450.15625,37.73394 416.43479,0.25 374.875,0.25 c -0.64937,0 -1.29208,-0.0182 -1.9375,0 z m 1.96875,33.78125 c 22.74803,0 41.1875,22.40166 41.1875,50.03125 0,27.62959 -18.43947,50.03125 -41.1875,50.03125 -22.74805,0 -41.1875,-22.40166 -41.1875,-50.03125 0,-27.62959 18.43945,-50.03125 41.1875,-50.03125 z"
       id="path3886"
       inkscape:connector-curvature="0" />
    <rect
       style="fill:#2e3436;fill-opacity:1;stroke:none"
       id="rect4301"
       width="466.69046"
       height="466.69046"
       x="453.96255"
       y="161.6729" />
  </g>
  <g
     inkscape:groupmode="layer"
     id="layer3"
     inkscape:label="Clock"
     style="display:inline" />
</svg>
