<?xml version="1.0" encoding="UTF-8" standalone="no"?>
<!-- Created with Inkscape (http://www.inkscape.org/) -->

<svg
   xmlns:dc="http://purl.org/dc/elements/1.1/"
   xmlns:cc="http://creativecommons.org/ns#"
   xmlns:rdf="http://www.w3.org/1999/02/22-rdf-syntax-ns#"
   xmlns:svg="http://www.w3.org/2000/svg"
   xmlns="http://www.w3.org/2000/svg"
   xmlns:sodipodi="http://sodipodi.sourceforge.net/DTD/sodipodi-0.dtd"
   xmlns:inkscape="http://www.inkscape.org/namespaces/inkscape"
   width="1024"
   height="1024"
   id="svg3090"
   version="1.1"
   inkscape:version="0.48.4 r"
   sodipodi:docname="Stop-Day.svg"
   inkscape:export-filename="D:\RobertLohr\Programmieren\Cpp\WorkTracker\icon\Icon256.png"
   inkscape:export-xdpi="22.524746"
   inkscape:export-ydpi="22.524746">
  <defs
     id="defs3092" />
  <sodipodi:namedview
     id="base"
     pagecolor="#ffffff"
     bordercolor="#666666"
     borderopacity="1.0"
     inkscape:pageopacity="0.0"
     inkscape:pageshadow="2"
     inkscape:zoom="0.7"
     inkscape:cx="294.2595"
     inkscape:cy="376.57596"
     inkscape:document-units="px"
     inkscape:current-layer="layer2"
     showgrid="false"
     inkscape:window-width="1856"
     inkscape:window-height="1057"
     inkscape:window-x="56"
     inkscape:window-y="-8"
     inkscape:window-maximized="1" />
  <metadata
     id="metadata3095">
    <rdf:RDF>
      <cc:Work
         rdf:about="">
        <dc:format>image/svg+xml</dc:format>
        <dc:type
           rdf:resource="http://purl.org/dc/dcmitype/StillImage" />
        <dc:title />
      </cc:Work>
    </rdf:RDF>
  </metadata>
  <g
     inkscape:groupmode="layer"
     id="layer4"
     inkscape:label="Flag"
     style="display:inline">
    <path
       style="fill:#0066cc;fill-opacity:1;stroke:none;display:inline"
       d="M 0,66.919529 1024,0 1024,1024 0,957.08135 z"
       id="rect4224"
       inkscape:connector-curvature="0"
       sodipodi:nodetypes="ccccc" />
  </g>
  <g
     inkscape:groupmode="layer"
     id="layer2"
     inkscape:label="Clock"
     style="display:inline">
    <rect
       y="317.79199"
       x="441.56076"
       height="410"
       width="410"
       id="rect6525-3"
       style="fill:#eeeeec;fill-opacity:1;stroke:none;display:inline" />
    <path
       style="fill:#eeeeec;fill-opacity:1;stroke:none;display:inline"
       d="m 378.2065,138.84375 c -42.20407,0 -77.27802,19.03983 -84.53331,44.15625 l -57.20815,0 0,81.71875 283.48292,0 0,-81.71875 -57.17696,0 c -7.25528,-25.11642 -42.36043,-44.15625 -84.5645,-44.15625 z m 0,29.6875 c 21.27481,0 38.52348,10.80392 38.52348,24.125 0,13.32108 -17.24867,24.09375 -38.52348,24.09375 -21.2748,0 -38.52348,-10.77267 -38.52348,-24.09375 0,-13.32108 17.24868,-24.125 38.52348,-24.125 z m -262.7395,48.875 0,666.34375 525.479,0 0,-120.25 -238.47127,0 0,-462.34375 -207.49651,0 0,-18.59375 0,-65.15625 -79.51122,0 z m 445.96778,0 0,61.8125 79.51122,0 0,-61.8125 -79.51122,0 z"
       id="path4204-4"
       inkscape:connector-curvature="0" />
    <path
       style="fill:#0066cc;fill-opacity:1;stroke:none;display:inline"
       d="m 194.97822,392.1875 0,407.8125 366.45656,0 0,-2 0,-34.5 0,-1.8125 -158.08664,0 0,-369.5 -0.87341,0 -205.50015,0 -1.99636,0 z"
       id="rect4206-0"
       inkscape:connector-curvature="0" />
    <path
       style="fill:#eeeeec;fill-opacity:1;stroke:none"
       d="m 264.13357,447.781 c -15.27421,0 -27.66828,13.03664 -27.66828,29.125 0,16.08836 12.39407,29.125 27.66828,29.125 15.27422,0 27.66829,-13.03664 27.66829,-29.125 0,-16.08836 -12.39407,-29.125 -27.66829,-29.125 z m 63.322,7.28125 0,43.6875 75.01941,0 0,-43.6875 -75.01941,0 z m -63.322,111.90625 c -15.27421,0 -27.66828,13.03664 -27.66828,29.125 0,16.08836 12.39407,29.125 27.66828,29.125 15.27422,0 27.66829,-13.03664 27.66829,-29.125 0,-16.08836 -12.39407,-29.125 -27.66829,-29.125 z m 63.322,7.28125 0,43.6875 75.01941,0 0,-43.6875 -75.01941,0 z m -63.322,111.875 c -15.27421,0 -27.66828,13.06789 -27.66828,29.15625 0,16.08836 12.39407,29.125 27.66828,29.125 15.27422,0 27.66829,-13.03664 27.66829,-29.125 0,-16.08836 -12.39407,-29.15625 -27.66829,-29.15625 z m 63.322,7.28125 0,43.71875 75.01941,0 0,-43.71875 -75.01941,0 z"
       id="path4214-8"
       inkscape:connector-curvature="0" />
  </g>
</svg>
