<?xml version="1.0" encoding="UTF-8" standalone="no"?>
<!-- Created with Inkscape (http://www.inkscape.org/) -->

<svg
   xmlns:dc="http://purl.org/dc/elements/1.1/"
   xmlns:cc="http://creativecommons.org/ns#"
   xmlns:rdf="http://www.w3.org/1999/02/22-rdf-syntax-ns#"
   xmlns:svg="http://www.w3.org/2000/svg"
   xmlns="http://www.w3.org/2000/svg"
   xmlns:sodipodi="http://sodipodi.sourceforge.net/DTD/sodipodi-0.dtd"
   xmlns:inkscape="http://www.inkscape.org/namespaces/inkscape"
   width="1024"
   height="1024"
   id="svg3090"
   version="1.1"
   inkscape:version="0.48.4 r"
   sodipodi:docname="Stop-Task.svg"
   inkscape:export-filename="D:\RobertLohr\Programmieren\Cpp\WorkTracker\icon\Icon256.png"
   inkscape:export-xdpi="22.524746"
   inkscape:export-ydpi="22.524746">
  <defs
     id="defs3092" />
  <sodipodi:namedview
     id="base"
     pagecolor="#ffffff"
     bordercolor="#666666"
     borderopacity="1.0"
     inkscape:pageopacity="0.0"
     inkscape:pageshadow="2"
     inkscape:zoom="0.7"
     inkscape:cx="449.26491"
     inkscape:cy="461.18118"
     inkscape:document-units="px"
     inkscape:current-layer="layer2"
     showgrid="false"
     inkscape:window-width="1856"
     inkscape:window-height="1057"
     inkscape:window-x="56"
     inkscape:window-y="-8"
     inkscape:window-maximized="1" />
  <metadata
     id="metadata3095">
    <rdf:RDF>
      <cc:Work
         rdf:about="">
        <dc:format>image/svg+xml</dc:format>
        <dc:type
           rdf:resource="http://purl.org/dc/dcmitype/StillImage" />
        <dc:title />
      </cc:Work>
    </rdf:RDF>
  </metadata>
  <g
     inkscape:groupmode="layer"
     id="layer4"
     inkscape:label="Flag"
     style="display:inline">
    <path
       style="fill:#0066cc;fill-opacity:1;stroke:none;display:inline"
       d="M 0,66.919529 1024,0 1024,1024 0,957.08135 z"
       id="rect4224"
       inkscape:connector-curvature="0"
       sodipodi:nodetypes="ccccc" />
  </g>
  <g
     inkscape:groupmode="layer"
     id="layer2"
     inkscape:label="Clock"
     style="display:inline">
    <path
       style="fill:#eeeeec;fill-opacity:1;stroke:none;display:inline"
       d="m 416.342,140.6875 c -83.34577,0 -150.4375,12.45855 -150.4375,27.90625 l 0,51.90625 c 0,12.0685 40.93431,22.32042 98.59375,26.21875 l 0,49.71875 C 223.05107,320.48829 115.467,441.84747 115.467,587.9375 c 0,163.38114 134.53469,295.8125 300.53125,295.8125 98.15792,0 185.3275,-46.30782 240.1875,-117.9375 l -150.34375,0 c -27.0584,13.25914 -57.56397,20.71875 -89.84375,20.71875 -111.45483,0 -201.78125,-88.895 -201.78125,-198.59375 0,-105.20059 83.07663,-191.2715 188.1875,-198.15625 l 0,-109.6875 65.15625,0 0,-33.34375 c 57.9929,-3.86601 99.21875,-14.13732 99.21875,-26.25 l 0,-51.90625 c 0,-15.4477 -67.09169,-27.90625 -150.4375,-27.90625 z"
       id="path4016"
       inkscape:connector-curvature="0" />
    <rect
       y="318.66699"
       x="440.96875"
       height="410"
       width="410"
       id="rect6525-3"
       style="fill:#eeeeec;fill-opacity:1;stroke:none;display:inline" />
  </g>
</svg>
