<?xml version="1.0" encoding="UTF-8" standalone="no"?>
<!-- Created with Inkscape (http://www.inkscape.org/) -->

<svg
   xmlns:dc="http://purl.org/dc/elements/1.1/"
   xmlns:cc="http://creativecommons.org/ns#"
   xmlns:rdf="http://www.w3.org/1999/02/22-rdf-syntax-ns#"
   xmlns:svg="http://www.w3.org/2000/svg"
   xmlns="http://www.w3.org/2000/svg"
   xmlns:sodipodi="http://sodipodi.sourceforge.net/DTD/sodipodi-0.dtd"
   xmlns:inkscape="http://www.inkscape.org/namespaces/inkscape"
   width="722.84998"
   height="1024"
   id="svg3090"
   version="1.1"
   inkscape:version="0.48.4 r"
   sodipodi:docname="Summary.svg"
   inkscape:export-filename="D:\RobertLohr\Programmieren\Cpp\WorkTracker\icon\Icon256.png"
   inkscape:export-xdpi="22.524746"
   inkscape:export-ydpi="22.524746">
  <defs
     id="defs3092" />
  <sodipodi:namedview
     id="base"
     pagecolor="#ffffff"
     bordercolor="#666666"
     borderopacity="1.0"
     inkscape:pageopacity="0.0"
     inkscape:pageshadow="2"
     inkscape:zoom="0.49497475"
     inkscape:cx="-143.45599"
     inkscape:cy="461.18118"
     inkscape:document-units="px"
     inkscape:current-layer="g4202"
     showgrid="false"
     inkscape:window-width="1856"
     inkscape:window-height="1057"
     inkscape:window-x="56"
     inkscape:window-y="-8"
     inkscape:window-maximized="1" />
  <metadata
     id="metadata3095">
    <rdf:RDF>
      <cc:Work
         rdf:about="">
        <dc:format>image/svg+xml</dc:format>
        <dc:type
           rdf:resource="http://purl.org/dc/dcmitype/StillImage" />
        <dc:title />
      </cc:Work>
    </rdf:RDF>
  </metadata>
  <g
     inkscape:label="Pad"
     inkscape:groupmode="layer"
     id="g4202"
     transform="translate(0,-28.362183)"
     style="display:inline">
    <path
       style="fill:#0066cc;fill-opacity:1;stroke:none"
       d="m 361.42857,29.487183 c -58.05735,0 -106.32449,26.168158 -116.3051,60.65625 l -78.6761,0 0,112.218747 389.9624,0 0,-112.218747 -78.6761,0 c -9.98061,-34.488092 -58.24776,-60.65625 -116.3051,-60.65625 z m 0,40.78125 c 29.26634,0 52.99565,14.83344 52.99565,33.124997 0,18.29156 -23.72931,33.09375 -52.99565,33.09375 -29.26635,0 -52.99565,-14.80219 -52.99565,-33.09375 0,-18.291557 23.7293,-33.124997 52.99565,-33.124997 z M 0,137.36218 l 0,915.00002 722.85714,0 0,-915.00002 -109.3797,0 0,89.46875 0,25.53125 -504.09774,0 0,-25.53125 0,-89.46875 -109.3797,0 z"
       id="path4204"
       inkscape:connector-curvature="0" />
    <rect
       style="fill:#eeeeec;fill-opacity:1;stroke:none"
       id="rect4206"
       width="504.09775"
       height="560"
       x="109.37969"
       y="377.36218" />
    <g
       id="g4212"
       transform="matrix(0.95112782,0,0,1,-142.66918,192.28574)"
       style="fill:#0066cc">
      <path
         sodipodi:type="arc"
         style="fill:#0066cc;fill-opacity:1;stroke:none"
         id="path4214"
         sodipodi:cx="364.28571"
         sodipodi:cy="475.42856"
         sodipodi:rx="27.142857"
         sodipodi:ry="37.142857"
         d="m 391.42856,475.42856 c 0,20.51343 -12.15227,37.14285 -27.14285,37.14285 -14.99059,0 -27.14286,-16.62942 -27.14286,-37.14285 0,-20.51343 12.15227,-37.14286 27.14286,-37.14286 14.99058,0 27.14285,16.62943 27.14285,37.14286 z"
         transform="matrix(1.4736842,0,0,1.0769231,-171.8421,-46.923538)" />
      <rect
         style="fill:#0066cc;fill-opacity:1;stroke:none"
         id="rect4216"
         width="277.79196"
         height="60"
         x="456.58896"
         y="435.07645" />
    </g>
    <g
       transform="matrix(0.95112782,0,0,1,-142.66918,355.93046)"
       id="g4218"
       style="fill:#0066cc">
      <path
         transform="matrix(1.4736842,0,0,1.0769231,-171.8421,-46.923538)"
         d="m 391.42856,475.42856 c 0,20.51343 -12.15227,37.14285 -27.14285,37.14285 -14.99059,0 -27.14286,-16.62942 -27.14286,-37.14285 0,-20.51343 12.15227,-37.14286 27.14286,-37.14286 14.99058,0 27.14285,16.62943 27.14285,37.14286 z"
         sodipodi:ry="37.142857"
         sodipodi:rx="27.142857"
         sodipodi:cy="475.42856"
         sodipodi:cx="364.28571"
         id="path4220"
         style="fill:#0066cc;fill-opacity:1;stroke:none"
         sodipodi:type="arc" />
      <rect
         y="435.07645"
         x="456.58896"
         height="60"
         width="277.79196"
         id="rect4222"
         style="fill:#0066cc;fill-opacity:1;stroke:none" />
    </g>
    <g
       style="fill:#0066cc"
       transform="matrix(0.95112782,0,0,1,-142.66918,28.640724)"
       id="g5458">
      <path
         transform="matrix(1.4736842,0,0,1.0769231,-171.8421,-46.923538)"
         d="m 391.42856,475.42856 c 0,20.51343 -12.15227,37.14285 -27.14285,37.14285 -14.99059,0 -27.14286,-16.62942 -27.14286,-37.14285 0,-20.51343 12.15227,-37.14286 27.14286,-37.14286 14.99058,0 27.14285,16.62943 27.14285,37.14286 z"
         sodipodi:ry="37.142857"
         sodipodi:rx="27.142857"
         sodipodi:cy="475.42856"
         sodipodi:cx="364.28571"
         id="path5460"
         style="fill:#0066cc;fill-opacity:1;stroke:none"
         sodipodi:type="arc" />
      <rect
         y="435.07645"
         x="456.58896"
         height="60"
         width="277.79196"
         id="rect5462"
         style="fill:#0066cc;fill-opacity:1;stroke:none" />
    </g>
  </g>
</svg>
